<svg id="Capa_1" enable-background="new 0 0 512 512" height="512" viewBox="0 0 512 512" width="512" xmlns="http://www.w3.org/2000/svg"><g><g><path d="m206.444 402.344v-14.638l-84.198 9.018c-14.775 1.582-27.907-9.424-28.927-24.245l-4.787-67.925c-.797-12.968-30.668-13.837-32.76-16.019-4.06-4.235-4.054-10.929-.34-15.468l34.195-60.07c-11.27-108.64 63.522-202.997 177.847-202.997.104 0 .207.004.311.004l.001.01v-.01c144.402 0 199.012 115.077 190.732 212.291-3.83 44.961-33.623 108.748-97.666 146.796-15.333 9.109-24.817 25.5-24.817 43.292v89.617h-129.59v-9.244" fill="#ffdcd5"/><g><path d="m399.322 118.213h-38.799v-22.353l-54.077 45.727 54.077 45.727v-22.352h38.799z" fill="#ccf5fc"/></g><g><path d="m160.626 164.962h38.799v22.352l54.076-45.727-54.076-45.727v22.353h-38.799z" fill="#c193dc"/></g></g><g><g><g><g><path d="m459.883 137.196c-8.876-29.946-23.339-55.978-42.986-77.371-35.924-39.114-87.454-59.798-149.015-59.821h-.064l-.344-.004c-55.322 0-105.085 21.401-140.124 60.262-35.58 39.464-52.977 94.172-47.98 150.539l-32.272 56.692c-6.38 8.515-5.819 20.374 1.456 27.962 2.783 2.903 6.085 3.528 12.081 4.663 10.154 1.922 16.189 3.814 17.957 5.626l4.751 67.422c.682 9.903 5.248 18.87 12.855 25.248 7.61 6.379 17.24 9.311 27.114 8.252l73.133-7.832v3.51c0 5.523 4.477 10 10 10s10-4.477 10-10v-14.638c0-2.837-1.206-5.542-3.316-7.438s-4.926-2.807-7.749-2.505l-84.198 9.018c-4.422.472-8.729-.839-12.135-3.693-3.404-2.853-5.447-6.865-5.753-11.311l-1.959-27.795c8.48 1.405 16.721 3.915 24.581 7.491 1.343.611 2.75.9 4.136.9 3.799 0 7.432-2.177 9.108-5.86 2.288-5.027.067-10.956-4.96-13.244-10.912-4.966-22.435-8.223-34.304-9.701l-1.383-19.627c-1.057-17.208-22.591-21.284-34.16-23.474-.492-.093-1.04-.197-1.582-.302.079-.272.213-.537.4-.766.355-.434.674-.898.951-1.386l34.195-60.07c1.032-1.813 1.472-3.904 1.256-5.979-5.382-51.879 10.157-102.291 42.631-138.31 31.18-34.58 75.635-53.633 125.153-53.654.243.01.49.012.735.004 55.721.067 102.078 18.512 134.074 53.35 33.81 36.812 51.15 92.173 46.387 148.092-3.747 43.992-33.898 104.047-92.81 139.047-18.326 10.887-29.71 30.77-29.71 51.89v79.617h-109.617c-.387-5.169-4.703-9.244-9.972-9.244-5.523 0-10 4.477-10 10v9.244c0 5.523 4.477 10 10 10h129.589c5.523 0 10-4.477 10-10v-89.617c0-14.1 7.635-27.394 19.925-34.695 30.579-18.167 56.466-43.833 74.86-74.224 15.626-25.815 25.449-54.34 27.662-80.32 2.466-28.933-.508-58.653-8.597-85.948z"/><path d="m198.126 453.28c2.366 3.514 6.803 5.217 10.906 4.11 4.094-1.105 7.099-4.773 7.391-9.003.282-4.074-2.086-8.023-5.788-9.721-3.659-1.678-8.078-.994-11.025 1.767-3.525 3.302-4.162 8.829-1.484 12.847z"/><path d="m133.041 241.255c5.523 0 10-4.477 10-10v-10.71l13.11 7.533c1.571.902 3.283 1.331 4.973 1.331 3.463 0 6.83-1.801 8.68-5.019 2.751-4.789 1.101-10.901-3.688-13.653l-39.551-22.727c-4.79-2.751-10.901-1.1-13.653 3.688-2.751 4.789-1.101 10.901 3.688 13.653l6.44 3.701v22.202c.001 5.524 4.478 10.001 10.001 10.001z"/><path d="m279.974 89.428c5.522 0 10-4.477 10-10v-23.219c0-5.523-4.478-10-10-10s-10 4.477-10 10v23.219c0 5.523 4.478 10 10 10z"/><path d="m237.007 83.614c2.579 0 5.156-.991 7.112-2.97 3.883-3.928 3.846-10.259-.082-14.142l-6.619-6.542c-3.928-3.883-10.26-3.846-14.142.082-3.883 3.928-3.846 10.259.082 14.142l6.619 6.542c1.949 1.926 4.49 2.888 7.03 2.888z"/><path d="m329.969 80.726 6.619-6.543c3.929-3.883 3.965-10.214.083-14.142s-10.215-3.963-14.142-.083l-6.619 6.543c-3.929 3.883-3.965 10.214-.083 14.142 1.956 1.979 4.534 2.97 7.112 2.97 2.541.001 5.082-.961 7.03-2.887z"/><path d="m269.974 226.965c0 5.523 4.478 10 10 10s10-4.477 10-10v-23.219c0-5.523-4.478-10-10-10s-10 4.477-10 10z"/><path d="m315.828 202.531c-3.882 3.928-3.846 10.259.083 14.142l6.619 6.542c1.948 1.926 4.489 2.888 7.029 2.888 2.578 0 5.156-.991 7.112-2.97 3.882-3.928 3.846-10.259-.083-14.142l-6.619-6.542c-3.925-3.883-10.258-3.847-14.141.082z"/><path d="m229.978 202.449-6.619 6.542c-3.928 3.882-3.965 10.214-.082 14.142 1.956 1.979 4.533 2.97 7.112 2.97 2.54 0 5.081-.962 7.03-2.888l6.619-6.542c3.928-3.882 3.964-10.214.082-14.142-3.884-3.928-10.215-3.965-14.142-.082z"/><path d="m296.447 141.587c0 2.942 1.296 5.736 3.543 7.636l54.076 45.727c1.841 1.557 4.138 2.365 6.459 2.364 1.427 0 2.862-.305 4.207-.929 3.531-1.639 5.791-5.178 5.791-9.071v-12.353h28.799c5.522 0 10-4.477 10-10v-46.748c0-5.523-4.478-10-10-10h-28.799v-12.353c0-3.893-2.26-7.433-5.791-9.071-3.531-1.637-7.692-1.079-10.666 1.436l-54.076 45.727c-2.247 1.899-3.543 4.692-3.543 7.635zm54.076-24.175v.801c0 5.523 4.477 10 10 10h28.799v26.749h-28.799c-5.523 0-10 4.477-10 10v.8l-28.589-24.175z"/><path d="m195.215 196.385c1.345.623 2.78.929 4.207.929 2.321 0 4.618-.807 6.459-2.364l54.076-45.727c2.247-1.9 3.543-4.693 3.543-7.636s-1.296-5.736-3.543-7.636l-54.076-45.727c-2.973-2.514-7.133-3.073-10.666-1.435-3.532 1.639-5.791 5.178-5.791 9.071v12.353h-28.798c-5.523 0-10 4.477-10 10v46.748c0 5.523 4.477 10 10 10h28.798v12.353c0 3.893 2.26 7.433 5.791 9.071zm-24.589-41.424v-26.749h28.798c5.523 0 10-4.477 10-10v-.801l28.589 24.175-28.589 24.175v-.801c0-5.523-4.477-10-10-10h-28.798z"/></g></g></g></g></g></svg>