<svg id="Capa_1" enable-background="new 0 0 512 512" height="512" viewBox="0 0 512 512" width="512" xmlns="http://www.w3.org/2000/svg"><g><g><g><g><g><g><g><g><path d="m419.466 170.198c-2.074-87.781-73.701-158.961-161.138-160.182-91.372-1.277-165.842 72.715-165.842 164.173 0 61.586 45.268 115.252 95.226 143.349 15.612 8.781 13.865 2.16 13.865 20.128v10.983h108.846v-10.985c0-17.895-1.872-11.301 13.688-20.027 51.132-28.674 96.852-84.113 95.355-147.439z" fill="#fff7bf"/></g></g></g></g></g></g><g><path d="m324.229 396.393h-136.458c-13.156 0-23.822-10.665-23.822-23.822v-.101c0-13.156 10.665-23.822 23.822-23.822h136.459c13.156 0 23.822 10.665 23.822 23.822v.101c-.001 13.157-10.666 23.822-23.823 23.822z" fill="#ccf5fc"/></g><g><path d="m306.979 444.137h-101.958c-13.156 0-23.822-10.665-23.822-23.822v-.101c0-13.156 10.665-23.822 23.822-23.822h101.958c13.156 0 23.822 10.665 23.822 23.822v.101c-.001 13.157-10.666 23.822-23.822 23.822z" fill="#c193dc"/></g><g><path d="m256.017 502h-.035c-19.936 0-36.098-16.162-36.098-36.098v-21.765h72.231v21.765c.001 19.936-16.161 36.098-36.098 36.098z" fill="#faf7f5"/></g></g><g><path d="m428.139 181.769c-1.615-3.938-5.705-6.454-9.949-6.147-4.149.3-7.75 3.23-8.896 7.224-1.154 4.022.4 8.436 3.793 10.874 3.342 2.402 7.949 2.467 11.372.189 3.92-2.606 5.487-7.8 3.68-12.14z"/><path d="m410.615 221.825c-5.021-2.304-10.956-.101-13.259 4.919-15.056 32.817-43.535 62.768-78.137 82.171-3.376 1.893-5.771 2.95-7.696 3.8-10.321 4.555-11.288 9.338-11.143 19.971.02 1.4.042 3.042.042 4.979v.985h-88.846v-.983c0-1.824.019-3.389.034-4.737.128-10.834-.852-15.7-11.223-20.268-1.945-.855-4.365-1.922-7.774-3.839-41.577-23.384-90.128-72.675-90.128-134.633 0-41.722 16.326-80.798 45.972-110.032 29.451-29.042 68.423-44.751 109.731-44.142 71.136.993 133.407 52.536 148.068 122.557 1.132 5.404 6.425 8.87 11.838 7.738 5.405-1.132 8.87-6.432 7.738-11.838-7.973-38.077-28.93-72.907-59.009-98.074-30.466-25.489-68.947-39.83-108.356-40.381-46.717-.65-90.762 17.068-124.054 49.899-33.487 33.021-51.929 77.156-51.929 124.273 0 30.706 10.629 61.841 30.736 90.038 17.574 24.645 42.288 46.673 69.587 62.026 3.813 2.145 6.748 3.486 8.823 4.405-.004.657-.012 1.361-.02 2.033-.017 1.416-.036 3.059-.036 4.974v.983h-3.807c-18.649 0-33.821 15.172-33.821 33.821v.101c0 14.26 8.871 26.487 21.384 31.453-2.634 4.811-4.134 10.329-4.134 16.19v.101c0 18.649 15.173 33.822 33.822 33.822h4.863v11.765c0 25.418 20.68 46.098 46.098 46.098h.035c25.418 0 46.098-20.68 46.098-46.098v-11.765h4.863c18.649 0 33.822-15.173 33.822-33.822v-.101c0-5.861-1.499-11.379-4.134-16.19 12.513-4.966 21.384-17.193 21.384-31.453v-.101c0-18.649-15.172-33.821-33.821-33.821h-3.807v-.985c0-2.043-.024-3.775-.044-5.253-.008-.572-.016-1.168-.021-1.735 2.046-.909 4.921-2.229 8.644-4.316 38.212-21.428 69.752-54.696 86.532-91.275 2.307-5.022.105-10.957-4.915-13.26zm-128.5 244.077c0 14.391-11.707 26.098-26.098 26.098h-.035c-14.391 0-26.098-11.707-26.098-26.098v-11.765h52.23v11.765zm38.686-45.587c0 7.622-6.2 13.822-13.822 13.822h-101.958c-7.622 0-13.822-6.2-13.822-13.822v-.101c0-7.621 6.2-13.821 13.822-13.821h101.957c7.622 0 13.822 6.2 13.822 13.821v.101zm17.25-47.845v.101c0 7.622-6.2 13.822-13.821 13.822h-136.46c-7.621 0-13.821-6.2-13.821-13.822v-.101c0-7.621 6.2-13.821 13.821-13.821h136.459c7.621 0 13.822 6.2 13.822 13.821z"/><path d="m476.855 175.675h-14.115c-5.522 0-10 4.477-10 10 0 5.522 4.478 10 10 10h14.115c5.522 0 10-4.478 10-10s-4.477-10-10-10z"/><path d="m447.592 121.685c2.578 0 5.156-.991 7.111-2.97l6.986-7.067c3.883-3.928 3.847-10.26-.081-14.142-3.929-3.886-10.261-3.847-14.142.081l-6.986 7.067c-3.883 3.928-3.847 10.26.081 14.142 1.95 1.928 4.491 2.889 7.031 2.889z"/><path d="m454.704 252.635c-3.883-3.93-10.215-3.963-14.142-.083-3.929 3.883-3.965 10.214-.083 14.142l6.986 7.068c1.956 1.979 4.534 2.971 7.112 2.971 2.54 0 5.081-.962 7.029-2.888 3.929-3.883 3.965-10.214.083-14.142z"/><path d="m59.26 185.675c0-5.523-4.478-10-10-10h-14.116c-5.522 0-10 4.477-10 10 0 5.522 4.478 10 10 10h14.116c5.522 0 10-4.477 10-10z"/><path d="m57.296 252.635-6.986 7.068c-3.882 3.928-3.846 10.259.083 14.142 1.949 1.927 4.489 2.888 7.029 2.888 2.578 0 5.156-.991 7.112-2.971l6.986-7.068c3.882-3.928 3.846-10.259-.083-14.142-3.928-3.882-10.258-3.847-14.141.083z"/><path d="m64.533 97.588c-3.883-3.927-10.213-3.964-14.142-.081-3.928 3.882-3.964 10.214-.081 14.142l6.986 7.067c1.956 1.979 4.533 2.97 7.111 2.97 2.54 0 5.081-.962 7.03-2.889 3.928-3.882 3.964-10.214.081-14.142z"/><path d="m319.613 165.248v-8.572c0-.853.675-1.546 1.505-1.546 5.522 0 10-4.478 10-10 0-5.523-4.478-10-10-10-11.857 0-21.505 9.665-21.505 21.546v8.572c0 20.701-14.371 38.095-33.619 42.647v-54.036c4.718-.803 8.31-4.911 8.31-9.857 0-5.523-4.478-10-10-10h-16.618c-5.522 0-10 4.477-10 10 0 4.946 3.592 9.053 8.309 9.857v54.036c-19.247-4.552-33.618-21.946-33.618-42.647v-8.572c0-11.881-9.647-21.546-21.505-21.546-5.522 0-10 4.477-10 10 0 5.522 4.478 10 10 10 .83 0 1.505.693 1.505 1.546v8.572c0 31.773 23.273 58.196 53.618 63.022v31.6c-4.717.804-8.309 4.911-8.309 9.857 0 5.522 4.478 10 10 10h16.618c5.522 0 10-4.478 10-10 0-4.946-3.592-9.054-8.31-9.857v-31.6c30.346-4.826 53.619-31.249 53.619-63.022z"/></g></g></svg>