<svg id="Capa_1" enable-background="new 0 0 512 512" height="512" viewBox="0 0 512 512" width="512" xmlns="http://www.w3.org/2000/svg"><g><g><g><path d="m256 332.148c0 17.714-5.472 31.666-23.095 31.421-12.817-.178-23.783-7.073-28.575-18.23-.572-1.334-1.859-2.187-3.305-2.183-.033 0-.063 0-.093 0-21.932 0-34.896-12.091-34.896-34.132 0-2.602.25-5.145.724-7.608.287-1.492-.381-2.998-1.696-3.754-16.397-9.44-22.711-21.31-22.711-41.663 0-20.354 6.314-32.226 22.711-41.664 1.315-.756 1.982-2.262 1.696-3.756-.474-2.462-.724-5.003-.724-7.606 0-22.041 12.965-34.132 34.896-34.132h.093c1.446.004 2.732-.849 3.305-2.185 4.792-11.155 15.758-18.049 28.575-18.227 17.625-.243 23.095 13.709 23.095 31.423" fill="#ff9eb1"/></g><g><path d="m256 179.852c0-17.714 5.472-31.666 23.095-31.421 12.817.178 23.783 7.073 28.575 18.229.572 1.334 1.859 2.187 3.305 2.183h.093c21.932 0 34.896 12.09 34.896 34.132 0 2.602-.25 5.146-.724 7.608-.287 1.492.381 2.998 1.696 3.754 16.397 9.44 22.711 21.31 22.711 41.663 0 20.354-6.314 32.226-22.711 41.664-1.315.756-1.982 2.262-1.696 3.756.474 2.462.724 5.003.724 7.606 0 22.041-12.965 34.132-34.896 34.132h-.093c-1.446-.004-2.732.849-3.305 2.185-4.792 11.155-15.758 18.049-28.575 18.227-17.625.244-23.095-13.708-23.095-31.422" fill="#ff7d97"/></g><g><g><g><path d="m416.064 256h85.936c0-135.862-110.138-246-246-246v85.936c88.401 0 160.064 71.663 160.064 160.064z" fill="#ff7d97"/></g></g><g><path d="m502 256h-85.936c0 88.401-71.663 160.064-160.064 160.064v85.936c135.862 0 246-110.138 246-246z" fill="#faf7f5"/></g><g><path d="m256 95.936v-85.936c-135.862 0-246 110.138-246 246h85.936c0-88.401 71.663-160.064 160.064-160.064z" fill="#faf7f5"/></g><g><path d="m95.936 256h-85.936c0 135.862 110.138 246 246 246v-85.936c-88.401 0-160.064-71.663-160.064-160.064z" fill="#ff9eb1"/></g></g></g><g><g><path d="m379.647 256c0-22.461-7.206-37.064-23.934-48.007.167-1.668.251-3.345.251-5.018 0-25.905-15.582-42.473-40.956-44.014-7.031-12.554-20.38-20.315-35.774-20.529-9.201-.115-16.768 2.667-22.485 8.306-.254.251-.503.507-.748.768-.245-.261-.494-.517-.748-.768-5.718-5.639-13.277-8.443-22.487-8.306-15.391.215-28.737 7.974-35.773 20.529-25.374 1.541-40.956 18.108-40.956 44.014 0 1.674.084 3.351.251 5.018-16.725 10.938-23.934 25.543-23.934 48.007 0 22.461 7.207 37.065 23.934 48.007-.167 1.666-.251 3.344-.251 5.018 0 25.905 15.581 42.473 40.956 44.014 7.032 12.554 20.381 20.315 35.774 20.529.202.003.402.004.603.004 8.93 0 16.29-2.794 21.883-8.31.254-.25.503-.507.748-.768.245.261.494.517.748.768 5.593 5.516 12.952 8.311 21.884 8.31.199 0 .401-.001.603-.004 15.393-.215 28.741-7.976 35.773-20.529 25.375-1.541 40.956-18.108 40.956-44.014 0-1.673-.084-3.35-.251-5.017 16.726-10.939 23.933-25.542 23.933-48.008zm-146.603 97.569c-8.406-.117-15.326-4.092-18.828-10.72 1.775-2.936 4.679-5.06 8.131-5.813 5.396-1.176 8.818-6.503 7.643-11.899-1.176-5.396-6.506-8.816-11.899-7.642-9.116 1.986-16.746 7.66-21.283 15.485-13.965-1.243-20.77-9.113-20.77-23.957 0-1.92.183-3.843.545-5.72 1.093-5.686-1.532-11.438-6.527-14.309-13.069-7.522-17.701-16.157-17.701-32.996 0-16.84 4.632-25.475 17.695-32.993 4.999-2.874 7.625-8.625 6.532-14.316-.36-1.874-.544-3.796-.544-5.715 0-16.238 8.144-24.132 24.962-24.132h.037c.172 0 .344-.003.516-.01 3.69 1.704 5.737 5.906 4.649 9.999-1.419 5.338 1.757 10.815 7.094 12.234.861.23 1.725.339 2.576.339 4.422 0 8.467-2.957 9.658-7.433 2.862-10.761-.831-21.76-8.606-28.711 3.834-4.268 9.52-6.74 16.122-6.832 4.925-.076 7.022 1.421 8.165 2.548 3.089 3.047 4.791 9.75 4.791 18.874v152.295c0 9.124-1.702 15.827-4.792 18.874-1.144 1.128-3.213 2.651-8.166 2.55zm108.909-64.577c-4.998 2.873-7.625 8.623-6.534 14.316.361 1.878.545 3.801.545 5.716 0 16.238-8.144 24.132-24.962 24.132h-.037c-.173 0-.345.003-.516.01-3.69-1.704-5.737-5.906-4.649-9.999 1.419-5.338-1.757-10.815-7.094-12.234-5.332-1.42-10.815 1.757-12.234 7.094-2.862 10.761.831 21.76 8.606 28.711-3.833 4.268-9.519 6.74-16.122 6.832-4.924.108-7.023-1.421-8.165-2.548-3.09-3.047-4.791-9.75-4.791-18.874v-152.296c0-9.124 1.702-15.827 4.792-18.874 1.142-1.127 3.236-2.625 8.164-2.548 8.406.117 15.325 4.091 18.829 10.722-1.584 2.621-4.073 4.598-7.084 5.533-5.274 1.637-8.224 7.24-6.587 12.515 1.331 4.288 5.282 7.039 9.548 7.039.982 0 1.98-.146 2.967-.452 7.966-2.472 14.51-7.766 18.567-14.768 13.964 1.243 20.768 9.114 20.768 23.957 0 1.916-.184 3.84-.546 5.723-1.091 5.686 1.536 11.437 6.528 14.305 13.068 7.523 17.7 16.158 17.7 32.997.001 16.839-4.631 25.474-17.693 32.991z"/><path d="m206.712 236.905c-10.809 0-20.205 6.166-24.523 16.093-4.294 9.873-2.412 20.887 4.915 28.748.345.369.698.735 1.059 1.096 1.952 1.949 4.508 2.923 7.065 2.923 2.562 0 5.124-.978 7.077-2.935 3.902-3.908 3.896-10.24-.012-14.142-.192-.192-.38-.387-.562-.581-2.648-2.842-1.723-5.934-1.202-7.131.532-1.224 2.2-4.07 6.183-4.07 5.523 0 10-4.478 10-10 0-5.523-4.477-10.001-10-10.001z"/><path d="m305.288 236.905c-5.522 0-10 4.477-10 10 0 5.522 4.478 10 10 10 3.981 0 5.649 2.846 6.182 4.069.522 1.198 1.446 4.29-1.193 7.122-.188.201-.38.4-.576.597-3.905 3.905-3.905 10.237 0 14.143 1.953 1.952 4.512 2.929 7.071 2.929 2.56 0 5.118-.977 7.071-2.929.356-.356.705-.718 1.056-1.093 7.324-7.858 9.206-18.873 4.911-28.746-4.318-9.926-13.713-16.092-24.522-16.092z"/><g><path d="m424.399 90.37c3.513 2.338 8.289 2.193 11.637-.386 3.169-2.442 4.607-6.655 3.564-10.52-1.116-4.135-4.837-7.162-9.12-7.394-4.244-.23-8.272 2.362-9.83 6.311-1.71 4.333-.109 9.392 3.749 11.989z"/><path d="m467.185 111.263c-3.128-4.554-9.354-5.71-13.904-2.584-4.553 3.126-5.71 9.352-2.584 13.904 25.136 36.608 39.249 79.088 41.096 123.417h-66.02c-4.997-85.834-73.939-154.776-159.773-159.772v-66.02c44.016 1.834 86.232 15.771 122.669 40.584l.882.603c4.556 3.115 10.78 1.95 13.899-2.608 3.118-4.558 1.95-10.781-2.608-13.899l-.916-.627c-42.52-28.956-92.288-44.261-143.926-44.261-68.38 0-132.668 26.629-181.02 74.98-48.352 48.352-74.98 112.64-74.98 181.02s26.628 132.668 74.98 181.02c48.352 48.351 112.64 74.98 181.02 74.98s132.668-26.629 181.02-74.98c48.351-48.352 74.98-112.64 74.98-181.02 0-51.988-15.497-102.037-44.815-144.737zm-384.904-14.84 23.48 23.48c1.953 1.952 4.512 2.929 7.071 2.929s5.119-.977 7.071-2.929c3.905-3.905 3.905-10.237 0-14.143l-23.48-23.48c39.752-36.544 92.035-59.659 149.577-62.071v66.019c-85.835 4.996-154.776 73.938-159.773 159.772h-66.018c2.412-57.542 25.527-109.825 62.072-149.577zm163.719 395.368c-57.542-2.412-109.825-25.527-149.577-62.072l23.48-23.48c3.905-3.905 3.906-10.237 0-14.143-3.905-3.903-10.237-3.904-14.142 0l-23.48 23.48c-36.545-39.751-59.66-92.034-62.072-149.576h66.018c4.997 85.834 73.938 154.776 159.773 159.772zm-140.064-235.791c0-82.745 67.318-150.064 150.064-150.064 82.745 0 150.064 67.318 150.064 150.064s-67.319 150.064-150.064 150.064c-82.746 0-150.064-67.319-150.064-150.064zm323.783 159.577-23.48-23.48c-3.906-3.904-10.236-3.904-14.143 0-3.905 3.905-3.905 10.237 0 14.143l23.48 23.48c-39.752 36.545-92.035 59.66-149.577 62.072v-66.018c85.834-4.996 154.776-73.938 159.772-159.772h66.018c-2.41 57.54-25.525 109.823-62.07 149.575z"/></g></g></g></g></svg>