<svg id="Capa_1" enable-background="new 0 0 511.998 511.998" height="512" viewBox="0 0 511.998 511.998" width="512" xmlns="http://www.w3.org/2000/svg"><g><g><g><g><path d="m256 420.829c0 38.345-11.844 68.545-49.991 68.014-27.744-.385-51.481-15.31-61.853-39.46-1.239-2.887-4.024-4.734-7.154-4.725-.07 0-.135 0-.201 0-47.474 0-75.537-26.171-75.537-73.882 0-5.633.542-11.138 1.568-16.468.62-3.229-.825-6.489-3.671-8.125-35.493-20.433-49.161-46.128-49.161-90.184 0-44.057 13.668-69.757 49.161-90.185 2.846-1.636 4.291-4.896 3.671-8.13-1.026-5.33-1.568-10.83-1.568-16.463 0-47.711 28.064-73.882 75.537-73.882h.201c3.13.009 5.915-1.837 7.154-4.729 10.372-24.145 34.109-39.069 61.853-39.455 38.15-.532 49.991 29.669 49.991 68.013" fill="#ff9eb1"/></g><g><g><path d="m256 91.168c0-38.345 11.844-68.545 49.991-68.014 27.744.385 51.481 15.31 61.853 39.46 1.239 2.887 4.024 4.734 7.154 4.725h.201c47.474 0 75.537 26.171 75.537 73.882 0 5.633-.542 11.138-1.568 16.468-.62 3.229.825 6.489 3.671 8.125 35.493 20.433 49.161 46.128 49.161 90.184 0 44.057-13.668 69.757-49.161 90.185-2.846 1.636-4.291 4.896-3.671 8.13 1.026 5.33 1.568 10.83 1.568 16.463 0 47.711-28.064 73.882-75.537 73.882h-.201c-3.13-.009-5.915 1.837-7.154 4.729-10.372 24.145-34.109 39.069-61.853 39.455-38.15.531-49.991-29.669-49.991-68.013" fill="#ff7d97"/></g></g></g><g><g><g><g><path d="m368.182 255.998c0 62.305-51.087 112.182-112.182 112.182-1.899 0-3.796-.173-5.696-.346-13.288-1.206-33.655-7.074-42.628-16.049l-43.147-96.649 91.471-104.416 5.697-6.559c59.197 2.761 106.485 51.948 106.485 111.837z" fill="#faf7f5"/></g></g><g><path d="m312.091 199.907c0 30.547-24.507 56.091-56.091 56.091-31.412 0-56.091 25.542-56.091 56.091 0 28.304 21.574 53.156 50.395 55.745-59.197-2.759-106.486-51.949-106.486-111.836 0-62.305 51.087-112.182 112.182-112.182 1.899 0 3.796.173 5.697.344 28.302 2.762 50.394 26.754 50.394 55.747z" fill="#c193dc"/></g></g></g></g><g><g><path d="m498.468 291.862c-5.138-2.02-10.944.509-12.965 5.648-6.442 16.388-18.055 28.727-37.648 40.004-6.513 3.745-9.932 11.253-8.506 18.689.921 4.784 1.388 9.688 1.388 14.574 0 41.792-22.663 63.882-65.538 63.882h-.17c-.96-.006-1.908.068-2.836.214-15.024-4.925-23.784-20.931-19.65-36.477 1.419-5.338-1.757-10.815-7.094-12.234-5.339-1.423-10.814 1.757-12.234 7.094-5.958 22.406 4.242 45.397 23.384 56.444-9.583 17.79-28.602 28.835-50.747 29.144-11.282.147-19.802-2.743-26.012-8.867-9.184-9.057-13.84-25.592-13.84-49.147v-43.053c62.712-5.104 112.182-57.771 112.182-121.777 0-31.496-12.008-61.417-33.812-84.249-20.857-21.84-48.561-35.009-78.37-37.338v-43.245c0-23.555 4.657-40.09 13.841-49.147 6.21-6.124 14.737-9.02 26.011-8.867 23.862.331 44.095 13.132 52.803 33.406.218.508.458 1.002.718 1.481-3.225 8.244-9.084 15.095-16.833 19.575-8.993 5.2-19.464 6.58-29.484 3.89-5.331-1.432-10.819 1.729-12.251 7.063-1.433 5.334 1.73 10.819 7.064 12.252 5.074 1.362 10.221 2.036 15.338 2.036 10.2 0 20.271-2.681 29.345-7.928 11.084-6.408 19.608-16.017 24.617-27.576 41.6.67 63.569 22.718 63.569 63.866 0 4.89-.467 9.795-1.388 14.582-1.427 7.428 1.992 14.935 8.502 18.678 19.572 11.268 31.176 23.584 37.624 39.937 1.551 3.934 5.319 6.334 9.306 6.334 1.22 0 2.461-.226 3.665-.7 5.138-2.026 7.661-7.833 5.634-12.972-7.942-20.14-22.199-35.771-44.8-49.086.967-5.521 1.457-11.156 1.457-16.772 0-52.114-31.481-83.391-84.288-83.876-12.159-26.864-38.965-43.754-70.32-44.188-16.676-.218-30.256 4.687-40.332 14.625-3.813 3.76-7.08 8.226-9.798 13.382-2.717-5.156-5.984-9.622-9.797-13.382-10.076-9.936-23.684-14.84-40.333-14.625-31.354.438-58.159 17.325-70.32 44.188-52.807.486-84.286 31.762-84.286 83.876 0 5.616.49 11.252 1.457 16.771-37.419 22.032-52.721 50.552-52.721 98.008 0 47.449 15.298 75.968 52.72 98.005-.967 5.521-1.457 11.156-1.457 16.772 0 52.114 31.481 83.391 84.288 83.876 12.157 26.864 38.963 43.754 70.318 44.189.377.005.751.008 1.124.008 16.171 0 29.359-4.92 39.208-14.633 3.813-3.76 7.08-8.226 9.798-13.382 2.717 5.156 5.984 9.622 9.797 13.382 9.849 9.713 23.035 14.633 39.209 14.633.372 0 .749-.003 1.124-.008 31.353-.438 58.159-17.325 70.32-44.189 52.807-.485 84.286-31.762 84.286-83.876 0-5.616-.49-11.252-1.457-16.772 22.633-13.33 36.901-28.99 44.837-49.179 2.022-5.138-.507-10.943-5.647-12.963zm-181.765-118.104c25.233 18.576 41.48 48.532 41.48 82.241 0 56.344-45.839 102.183-102.182 102.183-1.431 0-3.042-.147-4.791-.306-.003 0-.005 0-.007-.001h-.004c-23.153-2.08-41.289-22.19-41.289-45.785 0-25.414 20.676-46.091 46.091-46.091 36.443 0 66.091-29.648 66.091-66.091-.001-9.088-1.86-17.968-5.389-26.15zm-60.703-19.942c1.415 0 3.008.143 4.695.295l.031.003c23.582 2.3 41.365 21.987 41.365 45.794 0 25.415-20.676 46.091-46.091 46.091-36.443 0-66.091 29.648-66.091 66.091 0 9.251 1.953 18.131 5.472 26.211-25.282-18.571-41.563-48.555-41.563-82.302 0-56.344 45.839-102.183 102.182-102.183zm-118.976 300.843h.009c-.002 0-.001.002-.009 0zm95.135 15.317c-6.211 6.124-14.726 9.012-26.011 8.867-23.862-.331-44.095-13.132-52.803-33.405-.218-.508-.458-1.002-.718-1.482 3.225-8.244 9.084-15.095 16.834-19.576 8.993-5.2 19.464-6.58 29.484-3.89 5.332 1.432 10.819-1.73 12.251-7.064 1.433-5.334-1.73-10.819-7.064-12.252-15.188-4.078-31.058-1.987-44.683 5.892-11.084 6.408-19.608 16.017-24.617 27.576-41.6-.67-63.569-22.718-63.569-63.866 0-4.89.467-9.795 1.388-14.582 1.427-7.428-1.992-14.935-8.502-18.678-32.183-18.528-44.149-40.622-44.149-81.517 0-40.9 11.966-62.994 44.146-81.517 6.513-3.745 9.932-11.253 8.506-18.688-.921-4.784-1.388-9.688-1.388-14.574 0-41.792 22.663-63.882 65.538-63.882h.226c.938 0 1.864-.074 2.77-.217 15.03 4.921 23.795 20.931 19.66 36.48-1.419 5.338 1.757 10.815 7.094 12.234.861.229 1.725.339 2.576.339 4.422 0 8.467-2.957 9.658-7.433 5.958-22.406-4.242-45.397-23.385-56.444 9.583-17.79 28.602-28.835 50.747-29.144 11.292-.156 19.802 2.742 26.012 8.867 9.184 9.058 13.84 25.593 13.84 49.148v43.053c-62.712 5.104-112.182 57.771-112.182 121.777 0 31.495 12.008 61.415 33.811 84.247 20.857 21.841 48.562 35.009 78.371 37.338v43.245c0 23.555-4.657 40.09-13.841 49.148z"/><path d="m511.81 254.038c-.851-4.111-4.23-7.335-8.39-7.941-4.24-.617-8.486 1.646-10.381 5.478-1.824 3.689-1.151 8.252 1.663 11.258 2.818 3.01 7.312 3.965 11.117 2.394 4.349-1.795 6.915-6.567 5.991-11.189z"/><path d="m99.312 226.312c-18.687 0-34.935 10.665-42.402 27.834-7.417 17.052-4.171 36.071 8.473 49.637.652.699 1.318 1.39 1.999 2.071 1.953 1.952 4.512 2.929 7.071 2.929s5.119-.977 7.071-2.929c3.905-3.905 3.905-10.237 0-14.143-.516-.516-1.021-1.038-1.513-1.566-7.237-7.765-9.017-18.24-4.762-28.023 3.325-7.643 11.392-15.81 24.062-15.81 5.523 0 10-4.478 10-10 .001-5.523-4.476-10-9.999-10z"/><path d="m430.476 291.711c-3.905 3.905-3.905 10.237 0 14.143 1.953 1.952 4.512 2.929 7.071 2.929s5.119-.977 7.071-2.929c.681-.682 1.348-1.372 2.001-2.072 12.643-13.564 15.889-32.584 8.472-49.636-7.468-17.169-23.715-27.834-42.402-27.834-5.523 0-10 4.477-10 10 0 5.522 4.477 10 10 10 12.67 0 20.737 8.167 24.062 15.81 4.255 9.782 2.475 20.258-4.761 28.022-.494.529-.998 1.052-1.514 1.567z"/><path d="m256 212.524c5.523 0 10-4.477 10-10v-9.167c0-5.523-4.477-10-10-10s-10 4.477-10 10v9.167c0 5.522 4.477 10 10 10z"/><path d="m256 299.473c-5.523 0-10 4.478-10 10v9.167c0 5.522 4.477 10 10 10s10-4.478 10-10v-9.167c0-5.522-4.477-10-10-10z"/></g></g></g></svg>