<svg id="Capa_1" enable-background="new 0 0 512 512" height="512" viewBox="0 0 512 512" width="512" xmlns="http://www.w3.org/2000/svg"><g><g><g><path d="m137 416.468v-406.468h-28.583c-20.305 0-36.766 16.461-36.766 26.766v423.468" fill="#c193dc"/></g><g><path d="m137 10h303.348v408.468h-303.348z" fill="#ccf5fc"/></g><g><circle cx="288.44" cy="189.511" fill="#fff7bf" r="108.285"/></g><g><path d="m440.348 502h-326.931c-23.067 0-41.766-18.699-41.766-41.766 0-23.067 18.699-41.766 41.766-41.766h326.931z" fill="#faf7f5"/></g></g><g><path d="m440.349 0h-331.931c-25.187 0-46.767 20.216-46.767 36.766v423.469c0 28.544 23.222 51.766 51.766 51.766h326.931c5.523 0 10-4.478 10-10v-492.001c.001-5.523-4.476-10-9.999-10zm-10 408.468h-283.349v-388.468h283.349zm-321.931-388.468h18.582v388.468h-13.583c-11.963 0-22.991 4.079-31.766 10.919v-382.617c.097-4.054 11.339-16.77 26.767-16.77zm5 472c-17.516 0-31.766-14.25-31.766-31.766 0-17.517 14.25-31.767 31.766-31.767h316.931v21.767h-33.143c-5.523 0-10 4.478-10 10s4.477 10 10 10h33.143v21.766z"/><path d="m288.44 307.796c65.223 0 118.285-53.063 118.285-118.285 0-65.223-53.063-118.285-118.285-118.285s-118.285 53.063-118.285 118.285 53.062 118.285 118.285 118.285zm0-216.57c54.195 0 98.285 44.091 98.285 98.285s-44.09 98.285-98.285 98.285c-54.194 0-98.285-44.091-98.285-98.285 0-54.195 44.09-98.285 98.285-98.285z"/><path d="m238.229 161.328v5.182c0 24.333 17.299 44.689 40.211 49.351v19.738c-3.655 1.488-6.231 5.076-6.231 9.265 0 5.522 4.477 10 10 10h12.462c5.523 0 10-4.478 10-10 0-4.189-2.577-7.777-6.231-9.265v-19.738c22.912-4.662 40.211-25.018 40.211-49.351v-5.182c4.874-.668 8.628-4.849 8.628-9.906 0-5.523-4.477-10-10-10-10.272 0-18.628 8.37-18.628 18.659v6.429c0 13.218-8.452 24.489-20.211 28.645v-35.313c3.655-1.488 6.231-5.076 6.231-9.265 0-5.522-4.477-10-10-10h-12.462c-5.523 0-10 4.478-10 10 0 4.189 2.576 7.776 6.231 9.265v35.313c-11.759-4.156-20.211-15.428-20.211-28.645v-6.429c0-10.289-8.356-18.659-18.628-18.659-5.523 0-10 4.477-10 10 0 5.058 3.754 9.238 8.628 9.906z"/><path d="m349.511 335.549h-129.356c-5.523 0-10 4.478-10 10s4.477 10 10 10h129.356c5.523 0 10-4.478 10-10 0-5.523-4.477-10-10-10z"/><path d="m306.794 450.234h-169.794c-5.523 0-10 4.478-10 10s4.477 10 10 10h169.794c5.523 0 10-4.478 10-10s-4.477-10-10-10z"/><path d="m361.42 456.41c-1.604-3.853-5.557-6.38-9.736-6.154-3.946.213-7.457 2.755-8.854 6.456-1.526 4.043-.205 8.784 3.225 11.428 3.227 2.487 7.765 2.762 11.262.669 4.191-2.509 5.988-7.877 4.103-12.399z"/></g></g></svg>