<svg id="Capa_1" enable-background="new 0 0 512 512" height="512" viewBox="0 0 512 512" width="512" xmlns="http://www.w3.org/2000/svg"><g><g><path d="m206.444 402.344v-14.638l-84.198 9.018c-14.775 1.582-27.907-9.424-28.927-24.245l-4.787-67.925c-.797-12.968-30.668-13.837-32.76-16.019-4.06-4.235-4.054-10.929-.34-15.468l34.195-60.07c-11.27-108.64 63.521-202.997 177.847-202.997.104 0 .207.004.311.004l.001.01v-.01c144.402 0 199.012 115.077 190.732 212.291-3.83 44.961-33.623 108.748-97.666 146.796-15.333 9.109-24.817 25.5-24.817 43.292v89.617h-129.59v-9.244" fill="#ffdcd5"/><g><ellipse cx="307.368" cy="181.502" fill="#ccf5fc" rx="108.093" ry="108.093" transform="matrix(.707 -.707 .707 .707 -38.315 270.503)"/></g><g><ellipse cx="307.368" cy="181.502" fill="#faf7f5" rx="64.093" ry="64.093" transform="matrix(.489 -.873 .873 .489 -1.169 361.011)"/></g></g><g><path d="m459.883 137.196c-8.875-29.947-23.338-55.978-42.986-77.371-35.924-39.114-87.455-59.798-149.015-59.821h-.064l-.344-.004c-55.322 0-105.086 21.401-140.124 60.262-35.58 39.464-52.977 94.172-47.98 150.539l-32.272 56.692c-6.38 8.515-5.819 20.374 1.456 27.962 2.783 2.903 6.085 3.528 12.08 4.663 10.154 1.922 16.189 3.814 17.957 5.626l4.751 67.422c.682 9.903 5.248 18.87 12.855 25.248 7.61 6.379 17.238 9.311 27.114 8.252l73.133-7.832v3.51c0 5.523 4.477 10 10 10s10-4.477 10-10v-14.638c0-2.837-1.206-5.542-3.316-7.438-2.111-1.896-4.929-2.807-7.749-2.505l-84.198 9.018c-4.423.472-8.729-.839-12.135-3.693-3.404-2.853-5.447-6.865-5.753-11.311l-1.655-23.481c11.794-1.492 23.241-4.739 34.086-9.674 5.027-2.288 7.248-8.217 4.96-13.244-2.289-5.027-8.218-7.247-13.244-4.96-8.669 3.946-17.803 6.592-27.211 7.891l-1.718-24.367c-1.057-17.208-22.591-21.284-34.16-23.474-.492-.093-1.04-.197-1.582-.302.079-.272.213-.537.4-.766.355-.434.674-.898.951-1.386l34.195-60.07c1.032-1.813 1.472-3.904 1.256-5.979-5.382-51.879 10.157-102.291 42.631-138.31 31.184-34.583 75.639-53.636 125.161-53.655.223.009.446.012.672.006.019 0 .037-.001.056-.002 55.721.067 102.079 18.512 134.075 53.35 33.81 36.812 51.151 92.173 46.388 148.092-3.747 43.992-33.898 104.047-92.81 139.047-18.326 10.887-29.71 30.77-29.71 51.89v79.617h-109.618c-.387-5.169-4.703-9.244-9.972-9.244-5.523 0-10 4.477-10 10v9.244c0 5.523 4.477 10 10 10h129.589c5.523 0 10-4.477 10-10v-89.617c0-14.099 7.635-27.394 19.925-34.695 30.58-18.167 56.466-43.833 74.861-74.224 15.626-25.815 25.449-54.34 27.662-80.32 2.465-28.933-.508-58.653-8.598-85.948z"/><path d="m198.126 453.28c2.382 3.538 6.837 5.222 10.959 4.092 4.074-1.117 7.046-4.771 7.338-8.984.279-4.018-2.016-7.925-5.646-9.655-3.736-1.78-8.301-1.074-11.284 1.814-3.426 3.316-4.011 8.765-1.367 12.733z"/><path d="m133.041 225.231c5.523 0 10-4.477 10-10v-19.614h17.641c5.523 0 10-4.477 10-10s-4.477-10-10-10h-39.597c-5.523 0-10 4.477-10 10s4.477 10 10 10h1.957v19.614c-.001 5.523 4.476 10 9.999 10z"/><path d="m425.461 181.502c0-65.117-52.976-118.093-118.093-118.093s-118.093 52.977-118.093 118.093 52.976 118.093 118.093 118.093 118.093-52.976 118.093-118.093zm-216.185 0c0-54.089 44.004-98.093 98.093-98.093s98.093 44.004 98.093 98.093c0 54.088-44.004 98.093-98.093 98.093s-98.093-44.004-98.093-98.093z"/><path d="m381.461 181.502c0-40.855-33.238-74.093-74.093-74.093s-74.093 33.238-74.093 74.093 33.238 74.093 74.093 74.093 74.093-33.238 74.093-74.093zm-128.186 0c0-29.827 24.266-54.093 54.093-54.093s54.093 24.266 54.093 54.093-24.266 54.093-54.093 54.093c-29.826 0-54.093-24.266-54.093-54.093z"/><path d="m313.133 209.05 27.582-36.899c3.307-4.424 2.401-10.691-2.022-13.997-4.425-3.308-10.69-2.401-13.997 2.023l-20.816 27.848-10.269-9.837c-3.988-3.82-10.319-3.684-14.139.304-3.821 3.988-3.685 10.318.304 14.139l18.43 17.655c1.869 1.79 4.35 2.778 6.917 2.778.274 0 .549-.011.825-.034 2.854-.237 5.47-1.686 7.185-3.98z"/></g></g></svg>