<svg id="Capa_1" enable-background="new 0 0 512 512" height="512" viewBox="0 0 512 512" width="512" xmlns="http://www.w3.org/2000/svg"><g><g><g><path d="m502 256.001-16.602 17.44c-16.79 17.637-22.585 43.064-15.099 66.248l7.381 22.856-22.638 8.522c-22.77 8.571-39.027 28.933-42.361 53.058l-3.29 23.806-24.293-2.103c-24.138-2.09-47.495 9.164-60.924 29.354l-13.437 20.202-20.893-12.41c-20.862-12.391-46.827-12.391-67.689 0l-20.893 12.41-13.438-20.203c-13.429-20.19-36.785-31.443-60.923-29.353l-24.293 2.103-3.29-23.805c-3.335-24.125-19.591-44.487-42.361-53.058l-22.638-8.522 7.381-22.855c7.487-23.184 1.692-48.61-15.098-66.248l-16.602-17.442 16.602-17.44c16.79-17.637 22.585-43.064 15.099-66.248l-7.381-22.856 22.639-8.522c22.77-8.571 39.026-28.933 42.361-53.058l3.291-23.805 22.729 1.968c25.099 2.173 49.385-9.521 63.338-30.498l12.586-18.923 20.893 12.41c20.861 12.391 46.827 12.391 67.688 0l20.893-12.41 13.438 20.203c13.429 20.19 36.785 31.443 60.923 29.353l24.293-2.103 3.29 23.805c3.335 24.125 19.591 44.487 42.361 53.058l22.638 8.522-7.381 22.855c-7.487 23.184-1.692 48.611 15.098 66.248z" fill="#fff2a0"/></g><g><circle cx="256" cy="256" fill="#fff7bf" r="169.466"/></g></g><g><path d="m509.243 249.105-16.602-17.439c-14.278-14.999-19.192-36.564-12.826-56.28l7.381-22.855c1.641-5.08-.997-10.552-5.992-12.432l-22.639-8.522c-19.357-7.286-33.143-24.555-35.978-45.068l-3.29-23.805c-.729-5.274-5.47-9.052-10.769-8.594l-24.293 2.103c-20.491 1.78-40.327-7.776-51.735-24.929l-13.438-20.203c-2.948-4.435-8.857-5.779-13.433-3.06l-20.893 12.41c-17.726 10.528-39.749 10.53-57.475 0l-20.891-12.41c-4.579-2.72-10.485-1.376-13.433 3.06l-12.586 18.923c-11.933 17.94-32.681 27.938-54.149 26.073l-22.729-1.968c-5.303-.46-10.039 3.319-10.768 8.594l-3.291 23.805c-2.835 20.513-16.621 37.782-35.978 45.068l-22.639 8.522c-4.996 1.88-7.633 7.352-5.993 12.432l7.381 22.856c6.367 19.716 1.453 41.281-12.826 56.279l-16.602 17.44c-3.676 3.862-3.676 9.928 0 13.79l16.602 17.44c14.278 14.998 19.192 36.563 12.825 56.279l-7.381 22.855c-1.64 5.08.998 10.552 5.993 12.432l22.639 8.522c19.357 7.287 33.142 24.556 35.978 45.068l3.29 23.805c.729 5.275 5.475 9.055 10.768 8.594l24.293-2.103c20.5-1.778 40.326 7.777 51.735 24.929l13.438 20.203c2.948 4.432 8.853 5.778 13.433 3.06l20.893-12.41c17.726-10.529 39.749-10.529 57.476 0l20.893 12.41c1.599.95 3.358 1.403 5.099 1.403 3.243 0 6.415-1.577 8.334-4.463l13.436-20.202c11.409-17.153 31.238-26.706 51.735-24.929l24.293 2.103c5.318.461 10.039-3.32 10.769-8.594l3.29-23.805c2.835-20.513 16.621-37.782 35.978-45.068l22.639-8.522c4.996-1.88 7.634-7.352 5.994-12.432l-7.381-22.857c-6.367-19.717-1.453-41.282 12.825-56.28l16.602-17.44c3.674-3.859 3.674-9.926-.002-13.788zm-31.088 17.44c-19.337 20.313-25.993 49.517-17.372 76.215l4.451 13.784-13.716 5.163c-26.226 9.873-44.903 33.265-48.744 61.048l-1.988 14.392-14.826-1.284c-27.788-2.405-54.654 10.538-70.112 33.778l-8.174 12.29-12.723-7.557c-24.026-14.272-53.877-14.272-77.902 0l-12.722 7.557-8.175-12.29c-14.231-21.397-38.128-34.064-63.516-34.064-2.188 0-4.392.094-6.596.285l-14.826 1.284-1.989-14.392c-3.84-27.783-22.518-51.175-48.744-61.048l-13.715-5.163 4.451-13.782c8.623-26.698 1.966-55.903-17.371-76.216l-10.04-10.545 10.038-10.545c19.338-20.313 25.994-49.517 17.372-76.215l-4.451-13.784 13.716-5.163c26.226-9.873 44.904-33.265 48.744-61.048l1.989-14.392 13.263 1.149c28.745 2.491 56.543-10.892 72.526-34.922l7.324-11.01 12.723 7.557c24.025 14.271 53.877 14.27 77.902 0l12.723-7.557 8.175 12.29c14.23 21.397 38.127 34.065 63.516 34.064 2.188 0 4.392-.094 6.597-.285l14.826-1.284 1.988 14.392c3.84 27.784 22.518 51.176 48.744 61.048l13.715 5.163-4.451 13.783c-8.621 26.699-1.965 55.903 17.372 76.216l10.036 10.543z"/><path d="m422.238 292.073c-5.264-1.645-10.876 1.281-12.526 6.549-.087.276-.445 1.466-.852 2.819-.519 1.729-1.124 3.746-1.264 4.186-21.493 65.699-82.415 109.84-151.597 109.84-87.93 0-159.466-71.536-159.466-159.466s71.537-159.466 159.467-159.466c69.198 0 130.125 44.155 151.599 109.849.143.447.733 2.417 1.247 4.128.414 1.38.782 2.604.867 2.874 1.653 5.268 7.265 8.19 12.526 6.542 5.268-1.649 8.201-7.261 6.557-12.53-.085-.272-.419-1.386-.796-2.639-.582-1.939-1.259-4.184-1.383-4.563-11.663-35.681-33.877-66.37-64.239-88.749-30.987-22.84-67.773-34.912-106.378-34.912-98.958 0-179.466 80.508-179.466 179.466s80.508 179.465 179.466 179.465c38.599 0 75.377-12.068 106.361-34.9 30.358-22.372 52.574-53.051 64.243-88.721.13-.398.822-2.693 1.41-4.651.371-1.235.698-2.323.782-2.592 1.646-5.27-1.288-10.881-6.558-12.529z"/><path d="m434.7 252.18c-1.614-3.937-5.71-6.454-9.949-6.147-4.208.304-7.845 3.309-8.941 7.382-1.039 3.858.39 8.087 3.569 10.517 3.467 2.65 8.355 2.719 11.909.194 3.739-2.656 5.174-7.717 3.412-11.946z"/><path d="m198.631 256.491c5.523 0 10-4.477 10-10v-24.78h.005c5.523 0 10-4.477 10-10s-4.477-10-10-10h-33.134c-5.523 0-10 4.477-10 10s4.477 10 10 10h13.129v24.78c0 5.523 4.477 10 10 10z"/><path d="m315.727 256.491c5.523 0 10-4.477 10-10v-24.78h10.771c5.523 0 10-4.477 10-10s-4.477-10-10-10h-33.135c-5.522 0-10 4.477-10 10s4.478 10 10 10h2.364v24.78c0 5.523 4.478 10 10 10z"/><path d="m256 330.264c14.314 0 28.628-5.449 39.525-16.345 3.905-3.905 3.905-10.237 0-14.142s-10.235-3.905-14.143 0c-13.996 13.996-36.769 13.996-50.766 0-3.905-3.905-10.237-3.905-14.142 0s-3.905 10.237.001 14.142c10.897 10.896 25.211 16.345 39.525 16.345z"/></g></g></svg>