<svg id="Capa_1" enable-background="new 0 0 512 512" height="512" viewBox="0 0 512 512" width="512" xmlns="http://www.w3.org/2000/svg"><g><g><g><path d="m377.776 502h-243.552c-26.964 0-48.822-21.747-48.822-48.573v-267.956c0-10.01 3.108-19.775 8.9-27.96l47.537-67.185h228.321l47.538 67.185c5.791 8.185 8.9 17.951 8.9 27.96v267.956c0 26.826-21.858 48.573-48.822 48.573z" fill="#ccf5fc"/></g><g><path d="m109.462 10h293.077v80.325h-293.077z" fill="#c193dc"/></g><g><path d="m210.794 424.213h-125.392v-236.319h341.196v236.319h-125.392" fill="#faf7f5"/><g><path d="m333.27 306.053c0 42.73-34.595 77.369-77.27 77.369s-77.27-34.639-77.27-77.369 34.595-77.369 77.27-77.369 77.27 34.639 77.27 77.369" fill="#fff7bf"/></g></g></g><g><g><path d="m425.861 151.734-36.375-51.41h13.052c5.523 0 10-4.477 10-10v-80.324c0-5.523-4.477-10-10-10h-293.077c-5.523 0-10 4.477-10 10v80.325c0 5.523 4.477 10 10 10h13.052l-36.375 51.41c-7.024 9.926-10.736 21.592-10.736 33.736v267.956c0 32.297 26.387 58.573 58.821 58.573h243.553c32.434 0 58.821-26.276 58.821-58.573v-267.956c.001-12.144-3.712-23.81-10.736-33.737zm-306.4-131.734h273.077v60.325h-29.219v-30.162c0-5.523-4.477-10-10-10s-10 4.477-10 10v30.162h-44.879v-30.162c0-5.523-4.477-10-10-10s-10 4.477-10 10v30.162h-44.88v-30.162c0-5.523-4.477-10-10-10s-10 4.477-10 10v30.162h-44.879v-30.162c0-5.523-4.477-10-10-10s-10 4.477-10 10v30.162h-29.219v-60.325zm27.553 80.325h217.973l44.549 62.961c3.134 4.43 5.266 9.386 6.313 14.607h-319.697c1.047-5.222 3.179-10.177 6.313-14.607zm230.762 391.675h-243.552c-21.406 0-38.821-17.304-38.821-38.573v-19.214h115.392c5.523 0 10-4.477 10-10s-4.477-10-10-10h-115.393v-216.319h321.195v216.319h-115.39c-5.523 0-10 4.477-10 10s4.477 10 10 10h115.391v19.214c0 21.269-17.415 38.573-38.822 38.573z"/><path d="m265.42 420.39c-1.612-3.932-5.714-6.453-9.949-6.147-4.154.3-7.749 3.224-8.896 7.225-1.149 4.008.387 8.446 3.784 10.875 3.351 2.396 7.943 2.469 11.372.188 3.917-2.608 5.499-7.796 3.689-12.141z"/><path d="m343.27 306.053c0-48.175-39.149-87.369-87.27-87.369s-87.27 39.194-87.27 87.369 39.149 87.369 87.27 87.369 87.27-39.194 87.27-87.369zm-154.54 0c0-37.147 30.177-67.369 67.27-67.369s67.27 30.222 67.27 67.369c0 37.148-30.177 67.369-67.27 67.369s-67.27-30.221-67.27-67.369z"/><path d="m240.901 303.497v-10.596c0-5.523-4.477-10-10-10s-10 4.477-10 10v10.596c0 5.523 4.477 10 10 10s10-4.477 10-10z"/><path d="m281.099 313.497c5.523 0 10-4.477 10-10v-10.596c0-5.523-4.477-10-10-10s-10 4.477-10 10v10.596c0 5.523 4.477 10 10 10z"/><path d="m277.466 341.775c3.905-3.905 3.905-10.237 0-14.143-3.905-3.905-10.237-3.905-14.143 0-1.956 1.957-4.557 3.034-7.324 3.034s-5.368-1.078-7.324-3.034c-3.905-3.905-10.237-3.905-14.143 0-3.905 3.905-3.905 10.237 0 14.143 5.918 5.918 13.692 8.877 21.466 8.877s15.55-2.959 21.468-8.877z"/></g></g></g></svg>