<svg id="Capa_1" enable-background="new 0 0 512 512" height="512" viewBox="0 0 512 512" width="512" xmlns="http://www.w3.org/2000/svg"><g><g><path d="m206.444 402.344v-14.638l-84.198 9.018c-14.775 1.582-27.907-9.424-28.927-24.245l-4.787-67.925c-.797-12.968-30.668-13.837-32.76-16.019-4.06-4.235-4.054-10.929-.34-15.468l34.195-60.07c-11.27-108.64 63.521-202.997 177.847-202.997.104 0 .207.004.311.004l.001.01v-.01c144.402 0 199.012 115.077 190.732 212.291-3.83 44.961-33.623 108.748-97.666 146.796-15.333 9.109-24.817 25.5-24.817 43.292v89.617h-129.59v-9.244" fill="#ffdcd5"/><g><path d="m396.345 207.936 12.625-2.018c1.305-6.565 1.989-13.353 1.989-20.301s-.684-13.736-1.989-20.301l-12.625-2.018c-2.155-8.62-5.579-16.987-10.271-24.807l7.491-10.338c-7.588-11.355-17.362-21.126-28.719-28.712l-10.341 7.489c-7.821-4.691-16.19-8.115-24.813-10.269l-2.018-12.623c-6.566-1.305-13.356-1.989-20.306-1.989s-13.74.684-20.306 1.989l-2.018 12.623c-8.622 2.154-16.991 5.577-24.812 10.268l-10.341-7.489c-11.357 7.587-21.131 17.358-28.719 28.712l7.491 10.338c-4.692 7.82-8.116 16.187-10.271 24.807l-12.625 2.018c-1.305 6.565-1.989 13.353-1.989 20.301s.684 13.736 1.989 20.301l12.625 2.018c2.155 8.62 5.579 16.987 10.271 24.807l-7.491 10.338c7.588 11.355 17.362 21.126 28.719 28.712l10.341-7.489c7.822 4.691 16.19 8.114 24.813 10.268l2.018 12.623c6.566 1.305 13.356 1.989 20.306 1.989s13.74-.684 20.306-1.989l2.018-12.623c8.622-2.154 16.991-5.577 24.813-10.268l10.341 7.489c11.357-7.587 21.131-17.358 28.719-28.712l-7.491-10.338c4.692-7.819 8.115-16.186 10.27-24.806z" fill="#c193dc"/></g><g><ellipse cx="307.368" cy="185.617" fill="#faf7f5" rx="46.562" ry="46.562" transform="matrix(.16 -.987 .987 .16 74.868 459.246)"/></g></g><g><g><g><path d="m459.883 137.196c-8.875-29.947-23.338-55.978-42.986-77.371-35.924-39.114-87.455-59.798-149.015-59.821h-.064l-.344-.004c-55.322 0-105.086 21.401-140.124 60.262-35.58 39.464-52.977 94.172-47.98 150.539l-32.272 56.692c-6.38 8.515-5.819 20.374 1.456 27.962 2.783 2.903 6.085 3.528 12.08 4.663 10.154 1.922 16.189 3.814 17.957 5.626l4.751 67.422c.682 9.903 5.248 18.87 12.855 25.248 7.61 6.379 17.239 9.311 27.114 8.252l73.133-7.832v3.51c0 5.523 4.477 10 10 10s10-4.477 10-10v-14.638c0-2.837-1.206-5.542-3.316-7.438-2.111-1.896-4.928-2.807-7.749-2.505l-84.198 9.018c-4.422.472-8.729-.839-12.135-3.693-3.404-2.853-5.447-6.865-5.753-11.311l-1.655-23.481c11.794-1.492 23.241-4.739 34.086-9.674 5.027-2.288 7.247-8.217 4.96-13.244-2.289-5.027-8.218-7.247-13.244-4.96-8.67 3.946-17.803 6.592-27.211 7.891l-1.717-24.367c-1.057-17.208-22.591-21.284-34.16-23.474-.492-.093-1.041-.197-1.583-.302.079-.272.213-.537.4-.766.355-.434.674-.898.951-1.386l34.195-60.07c1.032-1.813 1.472-3.904 1.256-5.979-5.382-51.879 10.157-102.291 42.631-138.31 31.184-34.583 75.639-53.636 125.161-53.655.223.009.446.012.672.006.019 0 .037-.001.056-.002 55.721.067 102.079 18.512 134.075 53.35 33.809 36.812 51.151 92.173 46.388 148.092-3.748 43.992-33.899 104.048-92.81 139.047-18.326 10.887-29.71 30.77-29.71 51.89v79.617h-109.618c-.387-5.169-4.703-9.244-9.972-9.244-5.523 0-10 4.477-10 10v9.244c0 5.523 4.477 10 10 10h129.589c5.523 0 10-4.477 10-10v-89.617c0-14.099 7.635-27.394 19.925-34.695 30.58-18.167 56.466-43.833 74.861-74.224 15.625-25.815 25.449-54.34 27.662-80.32 2.465-28.933-.508-58.653-8.598-85.948z"/><path d="m198.126 453.28c2.299 3.415 6.568 5.138 10.589 4.19 4.018-.947 7.085-4.342 7.641-8.43.561-4.132-1.64-8.302-5.344-10.195-3.716-1.9-8.348-1.268-11.401 1.589-3.527 3.299-4.162 8.829-1.485 12.846z"/><path d="m133.041 225.231c5.523 0 10-4.477 10-10v-19.614h17.641c5.523 0 10-4.477 10-10s-4.477-10-10-10h-39.597c-5.523 0-10 4.477-10 10s4.477 10 10 10h1.957v19.614c-.001 5.523 4.476 10 9.999 10z"/><path d="m212.858 248.637c8.366 12.519 18.957 23.107 31.479 31.471 3.478 2.323 8.033 2.236 11.42-.216l5.189-3.758c4.895 2.511 9.986 4.618 15.229 6.302l1.013 6.337c.66 4.131 3.822 7.415 7.926 8.23 7.282 1.447 14.77 2.181 22.255 2.181s14.973-.734 22.254-2.181c4.103-.815 7.266-4.098 7.926-8.23l1.013-6.337c5.244-1.684 10.334-3.791 15.229-6.302l5.189 3.758c3.387 2.454 7.943 2.539 11.42.216 12.522-8.364 23.112-18.953 31.479-31.472 2.324-3.478 2.238-8.036-.217-11.423l-3.757-5.185c2.511-4.892 4.618-9.981 6.302-15.222l6.341-1.014c4.131-.66 7.415-3.822 8.23-7.925 1.447-7.282 2.181-14.768 2.181-22.25s-.734-14.969-2.181-22.25c-.815-4.104-4.099-7.265-8.23-7.925l-6.341-1.014c-1.684-5.241-3.791-10.33-6.302-15.222l3.757-5.185c2.454-3.388 2.541-7.945.217-11.423-8.366-12.519-18.957-23.107-31.479-31.472-3.478-2.323-8.034-2.237-11.42.216l-5.189 3.758c-4.895-2.511-9.986-4.618-15.229-6.302l-1.013-6.337c-.66-4.131-3.822-7.415-7.926-8.229-14.564-2.895-29.946-2.894-44.509 0-4.103.815-7.266 4.099-7.926 8.229l-1.013 6.338c-5.243 1.684-10.334 3.79-15.229 6.302l-5.189-3.758c-3.386-2.453-7.941-2.539-11.42-.216-12.522 8.364-23.113 18.953-31.479 31.472-2.324 3.478-2.238 8.036.216 11.423l3.757 5.185c-2.511 4.893-4.618 9.982-6.302 15.222l-6.341 1.014c-4.131.66-7.415 3.822-8.23 7.925-1.447 7.282-2.181 14.768-2.181 22.25s.734 14.968 2.181 22.25c.815 4.103 4.099 7.265 8.23 7.925l6.341 1.014c1.684 5.241 3.791 10.329 6.302 15.223l-3.757 5.185c-2.454 3.387-2.54 7.944-.216 11.422zm1.627-51.452c-.471-3.827-.709-7.697-.709-11.567 0-3.871.237-7.741.709-11.568l5.484-.876c3.956-.632 7.152-3.564 8.124-7.449 1.946-7.787 5.023-15.218 9.144-22.087 2.061-3.435 1.873-7.768-.477-11.012l-3.252-4.488c4.766-6.122 10.241-11.597 16.365-16.361l4.493 3.253c3.243 2.349 7.575 2.538 11.008.477 6.871-4.121 14.304-7.197 22.093-9.143 3.887-.971 6.818-4.167 7.451-8.123l.876-5.481c7.657-.942 15.49-.942 23.146 0l.876 5.481c.632 3.956 3.565 7.152 7.451 8.123 7.79 1.946 15.223 5.022 22.093 9.143 3.434 2.061 7.766 1.872 11.009-.477l4.493-3.253c6.124 4.765 11.6 10.239 16.365 16.361l-3.251 4.488c-2.351 3.244-2.538 7.578-.477 11.013 4.121 6.867 7.197 14.297 9.144 22.086.972 3.886 4.168 6.817 8.123 7.449l5.484.876c.471 3.827.708 7.697.708 11.568s-.237 7.741-.708 11.567l-5.484.877c-3.955.632-7.152 3.563-8.123 7.449-1.947 7.789-5.023 15.22-9.144 22.086-2.061 3.435-1.874 7.768.477 11.013l3.251 4.488c-4.766 6.122-10.241 11.596-16.365 16.361l-4.493-3.253c-3.242-2.349-7.574-2.536-11.009-.477-6.87 4.121-14.302 7.197-22.092 9.142-3.887.971-6.819 4.168-7.451 8.124l-.876 5.482c-7.656.942-15.489.942-23.146 0l-.876-5.482c-.632-3.956-3.565-7.152-7.451-8.123-7.789-1.946-15.223-5.022-22.092-9.143-3.435-2.061-7.767-1.872-11.009.477l-4.493 3.253c-6.124-4.765-11.599-10.239-16.365-16.361l3.252-4.488c2.35-3.244 2.538-7.577.477-11.012-4.121-6.869-7.198-14.3-9.144-22.087-.972-3.886-4.168-6.817-8.124-7.449z"/><path d="m307.369 242.179c31.188 0 56.562-25.374 56.562-56.562s-25.374-56.563-56.562-56.563-56.563 25.374-56.563 56.563 25.374 56.562 56.563 56.562zm0-93.124c20.16 0 36.562 16.402 36.562 36.563 0 20.16-16.402 36.562-36.562 36.562-20.161 0-36.563-16.402-36.563-36.562 0-20.161 16.402-36.563 36.563-36.563z"/></g></g></g></g></svg>