<svg id="Capa_1" enable-background="new 0 0 511.997 511.997" height="512" viewBox="0 0 511.997 511.997" width="512" xmlns="http://www.w3.org/2000/svg"><g><g><g><g><g><g><g><g><path d="m502 157.385c0 80.394-65.089 145.566-145.38 145.566s-145.38-65.172-145.38-145.566 65.089-145.566 145.38-145.566c80.291 0 145.38 65.172 145.38 145.566" fill="#ff9eb1"/></g></g></g><g><g><g><path d="" fill="none"/></g></g></g></g></g></g><g><g><path d="m292.527 358.734c0 78.118-63.246 141.445-141.264 141.445-78.017-.001-141.263-63.328-141.263-141.445 0-78.118 63.246-141.444 141.264-141.444 78.017-.001 141.263 63.326 141.263 141.444" fill="#ccf5fc"/></g></g><g><g><path d="m353.03 185.039c22.931 0 41.52 18.589 41.52 41.519v1.729h-83.04v-1.729c0-22.93 18.589-41.519 41.52-41.519z" fill="#faf7f5"/></g></g></g><g><path d="m511.81 155.428c-.847-4.173-4.343-7.428-8.566-7.966-4.175-.531-8.355 1.727-10.206 5.503-1.816 3.704-1.154 8.25 1.673 11.266 2.857 3.048 7.436 3.972 11.26 2.321 4.268-1.841 6.75-6.56 5.839-11.124z"/><path d="m497.892 193.324c-5.242-1.717-10.897 1.139-12.617 6.387-18.285 55.77-69.987 93.241-128.654 93.241-74.649 0-135.381-60.815-135.381-135.566s60.731-135.566 135.381-135.566c58.726 0 110.443 37.52 128.694 93.364 1.715 5.25 7.363 8.115 12.611 6.399 5.25-1.716 8.114-7.362 6.398-12.612-20.945-64.091-80.302-107.152-147.704-107.152-85.678 0-155.381 69.787-155.381 155.566 0 22.807 4.928 44.484 13.773 64.019-19.383-9.055-40.986-14.115-63.748-14.115-83.408 0-151.264 67.938-151.264 151.445s67.856 151.445 151.264 151.445c83.407 0 151.264-67.938 151.264-151.445 0-21.668-4.569-42.288-12.793-60.945 20.268 9.718 42.954 15.163 66.886 15.163 67.334 0 126.674-43.004 147.658-107.01 1.72-5.248-1.139-10.897-6.387-12.618zm-346.628 296.854c-72.379 0-131.264-58.965-131.264-131.444s58.885-131.444 131.264-131.444 131.264 58.966 131.264 131.444c-.001 72.479-58.885 131.444-131.264 131.444z"/><path d="m408.14 149.447v-8.684l5.269 1.96c1.149.428 2.327.63 3.485.63 4.058 0 7.876-2.49 9.374-6.517 1.925-5.176-.71-10.934-5.887-12.859l-26.868-9.994c-5.172-1.924-10.934.709-12.859 5.886-1.925 5.176.71 10.934 5.887 12.859l1.627.605c-.018.244-.027.49-.027.739v15.374c0 5.523 4.478 10 10 10 5.521.001 9.999-4.476 9.999-9.999z"/><path d="m306.37 159.447c5.523 0 10-4.477 10-10v-12.876l10.329-3.842c5.177-1.925 7.812-7.683 5.887-12.859-1.926-5.177-7.682-7.809-12.859-5.886l-26.868 9.994c-5.177 1.925-7.811 7.683-5.887 12.859 1.498 4.027 5.315 6.517 9.374 6.517h.024v6.094c0 5.522 4.478 9.999 10 9.999z"/><path d="m215.025 316.127-26.868-9.994c-5.172-1.924-10.934.709-12.859 5.886-1.925 5.176.71 10.934 5.887 12.859l1.626.605c-.018.244-.027.491-.027.739v15.374c0 5.523 4.477 10 10 10 5.522 0 10-4.477 10-10v-8.684l5.27 1.96c1.149.428 2.327.63 3.485.63 4.058 0 7.876-2.49 9.374-6.517 1.924-5.175-.711-10.933-5.888-12.858z"/><path d="m111.014 341.596v-12.876l10.329-3.842c5.177-1.925 7.812-7.683 5.887-12.859-1.926-5.176-7.683-7.81-12.859-5.886l-26.868 9.994c-5.177 1.925-7.812 7.683-5.887 12.859 1.498 4.027 5.316 6.517 9.374 6.517h.024v6.093c0 5.523 4.478 10 10 10s10-4.477 10-10z"/><path d="m311.51 238.287h83.04c5.522 0 10-4.477 10-10v-1.729c0-28.408-23.112-51.519-51.521-51.519s-51.52 23.111-51.52 51.519v1.729c.001 5.523 4.478 10 10.001 10zm41.519-43.248h.001c14.518 0 26.776 9.867 30.419 23.248h-60.839c3.643-13.381 15.901-23.248 30.419-23.248z"/><path d="m189.664 381.151c-5.522 0-10 4.477-10 10v4.902c0 6.01-4.89 10.9-10.9 10.9-3.459 0-6.619-1.577-8.702-4.334l-1.025-1.563c-.089-.136-.182-.27-.277-.401-5.801-7.971-15.146-12.729-24.995-12.729-17.038 0-30.9 13.861-30.9 30.899v4.903c0 5.523 4.478 10 10 10s10-4.477 10-10v-4.903c0-6.01 4.89-10.899 10.9-10.899 3.459 0 6.619 1.577 8.702 4.334l1.025 1.563c.089.136.182.27.277.401 5.801 7.971 15.145 12.729 24.995 12.729 17.038 0 30.9-13.862 30.9-30.9v-4.902c0-5.523-4.478-10-10-10z"/></g></g></svg>