<svg id="Capa_1" enable-background="new 0 0 511.999 511.999" height="512" viewBox="0 0 511.999 511.999" width="512" xmlns="http://www.w3.org/2000/svg"><g><g><g><g><g><g><g><g><path d="m502 157.387c0 80.394-65.089 145.566-145.38 145.566s-145.38-65.172-145.38-145.566 65.089-145.566 145.38-145.566c80.291-.001 145.38 65.172 145.38 145.566" fill="#fff2a0"/></g></g></g></g></g></g><g><g><path d="m292.527 358.735c0 78.118-63.246 141.445-141.264 141.445-78.017-.001-141.263-63.328-141.263-141.445 0-78.118 63.246-141.444 141.264-141.444 78.017-.001 141.263 63.326 141.263 141.444" fill="#fff7bf"/></g></g><g><g><path d="m356.62 231.961c-22.931 0-41.52-18.589-41.52-41.519v-1.729h83.04v1.729c0 22.93-18.589 41.519-41.52 41.519z" fill="#faf7f5"/></g></g></g><g><g><path d="m497.892 193.325c-5.242-1.717-10.897 1.139-12.617 6.387-18.285 55.77-69.987 93.241-128.654 93.241-74.649 0-135.381-60.815-135.381-135.566s60.731-135.566 135.381-135.566c58.726 0 110.443 37.52 128.694 93.364 1.715 5.25 7.362 8.115 12.611 6.399 5.25-1.716 8.114-7.362 6.398-12.612-20.945-64.091-80.302-107.152-147.704-107.152-85.678 0-155.381 69.787-155.381 155.566 0 22.807 4.928 44.484 13.773 64.019-19.383-9.055-40.986-14.115-63.748-14.115-83.408 0-151.264 67.938-151.264 151.445s67.856 151.445 151.264 151.445c83.407 0 151.264-67.938 151.264-151.445 0-21.668-4.569-42.288-12.793-60.945 20.268 9.718 42.954 15.163 66.886 15.163 67.334 0 126.674-43.004 147.658-107.01 1.72-5.248-1.139-10.897-6.387-12.618zm-346.628 296.854c-72.379 0-131.264-58.965-131.264-131.444s58.885-131.444 131.264-131.444 131.264 58.966 131.264 131.444c-.001 72.479-58.885 131.444-131.264 131.444z"/><path d="m119.744 354.062v-10.273c4.62-.883 8.112-4.944 8.112-9.821 0-5.523-4.478-10-10-10h-26.868c-5.522 0-10 4.477-10 10s4.478 10 10 10h8.756v10.094c0 5.523 4.478 10 10 10 5.523 0 10-4.477 10-10z"/><path d="m211.539 323.968h-26.868c-5.522 0-10 4.477-10 10s4.478 10 10 10h6.843v10.094c0 5.523 4.477 10 10 10 5.522 0 10-4.477 10-10v-10.094h.025c5.522 0 10-4.477 10-10s-4.478-10-10-10z"/><path d="m170.509 404.042c-10.611 10.612-27.879 10.612-38.49 0-3.906-3.905-10.236-3.905-14.143.001-3.905 3.905-3.905 10.237 0 14.142 9.205 9.205 21.297 13.807 33.388 13.807s24.183-4.602 33.388-13.807c3.905-3.905 3.905-10.237 0-14.142-3.906-3.906-10.236-3.906-14.143-.001z"/><path d="m408.14 133.358h8.755c5.522 0 10-4.477 10-10s-4.478-10-10-10h-26.868c-5.522 0-10 4.477-10 10 0 4.878 3.493 8.939 8.113 9.821v10.273c0 5.523 4.478 10 10 10 5.523 0 10-4.477 10-10z"/><path d="m306.37 153.452c5.523 0 10-4.477 10-10v-10.094h6.843c5.523 0 10-4.477 10-10s-4.477-10-10-10h-26.868c-5.522 0-10 4.477-10 10s4.478 10 10 10h.025v10.094c0 5.523 4.478 10 10 10z"/><path d="m356.62 241.961c28.408 0 51.52-23.111 51.52-51.519v-1.729c0-5.523-4.477-10-10-10h-83.04c-5.523 0-10 4.477-10 10v1.729c0 28.407 23.112 51.519 51.52 51.519zm30.419-43.248c-3.643 13.381-15.9 23.247-30.419 23.247-14.52 0-26.777-9.867-30.42-23.247z"/></g><g><g><g><path d="m502 167.389c-4.193 0-7.984-2.713-9.407-6.635-1.423-3.923-.154-8.447 3.063-11.093 3.27-2.69 8.024-3.002 11.621-.767 3.481 2.163 5.349 6.421 4.533 10.446-.934 4.609-5.096 8.049-9.81 8.049z"/></g></g></g></g></g></svg>