<svg id="Capa_1" enable-background="new 0 0 512 512" height="512" viewBox="0 0 512 512" width="512" xmlns="http://www.w3.org/2000/svg"><g><g><g><path d="m206.445 402.344v-14.638l-84.198 9.018c-14.775 1.582-27.907-9.424-28.927-24.245l-4.787-67.925c-.797-12.968-30.668-13.837-32.76-16.019-4.06-4.235-4.054-10.929-.34-15.468l34.195-60.07c-11.271-108.64 63.521-202.997 177.846-202.997.104 0 .207.004.311.004l.001.01v-.01c144.402 0 199.012 115.077 190.732 212.291-3.83 44.961-33.623 108.748-97.666 146.796-15.333 9.109-24.817 25.5-24.817 43.292v89.617h-129.59v-9.244" fill="#ffdcd5"/></g><g><circle cx="302.989" cy="175.958" fill="#fff7bf" r="108.285"/></g></g><g><path d="m459.884 137.196c-8.876-29.946-23.339-55.978-42.986-77.371-35.925-39.114-87.455-59.798-149.015-59.821h-.063l-.346-.004c-55.321 0-105.085 21.401-140.123 60.262-35.581 39.464-52.978 94.172-47.981 150.539l-32.274 56.692c-6.379 8.517-5.817 20.375 1.457 27.961 2.783 2.904 6.086 3.529 12.081 4.664 10.153 1.922 16.189 3.814 17.957 5.627l4.751 67.421c.682 9.903 5.248 18.87 12.856 25.248 7.609 6.379 17.241 9.31 27.113 8.252l73.133-7.832v3.509c0 5.523 4.478 10 10 10 5.523 0 10-4.477 10-10v-14.638c0-2.837-1.205-5.542-3.316-7.438-2.109-1.897-4.922-2.809-7.748-2.505l-84.197 9.018c-4.416.47-8.729-.838-12.136-3.693-3.403-2.853-5.446-6.865-5.752-11.311l-1.655-23.481c11.793-1.492 23.241-4.739 34.086-9.674 5.027-2.288 7.248-8.217 4.96-13.244-2.286-5.027-8.218-7.246-13.243-4.96-8.671 3.945-17.804 6.592-27.211 7.891l-1.718-24.367c-1.058-17.208-22.591-21.284-34.159-23.474-.493-.093-1.042-.197-1.584-.302.079-.271.214-.538.4-.766.355-.434.674-.898.951-1.385l34.195-60.07c1.032-1.813 1.472-3.904 1.256-5.979-5.382-51.88 10.157-102.291 42.633-138.31 31.179-34.581 75.634-53.634 125.151-53.655.243.01.49.012.735.004 55.721.067 102.078 18.512 134.074 53.35 33.81 36.812 51.15 92.173 46.387 148.092-3.747 43.992-33.897 104.047-92.81 139.047-18.326 10.887-29.71 30.77-29.71 51.89v79.617h-109.617c-.387-5.169-4.703-9.244-9.972-9.244-5.522 0-10 4.477-10 10v9.244c0 5.523 4.478 10 10 10h129.59c5.522 0 10-4.477 10-10v-89.617c0-14.1 7.635-27.394 19.925-34.695 30.579-18.167 56.466-43.833 74.86-74.224 15.626-25.815 25.449-54.34 27.662-80.32 2.465-28.933-.509-58.653-8.597-85.948z"/><path d="m200.896 456.05c3.475 2.316 8.148 2.199 11.504-.286 3.355-2.484 4.82-6.945 3.606-10.934-1.212-3.984-4.867-6.855-9.029-7.08-4.305-.233-8.369 2.436-9.89 6.463-1.627 4.304.003 9.275 3.809 11.837z"/><path d="m133.041 225.231c5.522 0 10-4.477 10-10v-14.845l20.089-5.073c5.355-1.353 8.6-6.79 7.247-12.144-1.352-5.355-6.789-8.599-12.143-7.247l-39.597 10c-5.355 1.353-8.6 6.79-7.247 12.145 1.145 4.533 5.217 7.554 9.688 7.554.649 0 1.306-.064 1.964-.195v9.807c-.001 5.521 4.476 9.998 9.999 9.998z"/><path d="m421.274 175.958c0-65.222-53.063-118.285-118.285-118.285-65.223 0-118.285 53.063-118.285 118.285 0 65.223 53.063 118.285 118.285 118.285 65.223 0 118.285-53.062 118.285-118.285zm-216.57 0c0-54.194 44.091-98.285 98.285-98.285s98.285 44.09 98.285 98.285-44.091 98.285-98.285 98.285-98.285-44.09-98.285-98.285z"/><path d="m311.652 235.16c16.794-2.456 28.653-13.246 30.537-28.085 2.138-16.835-8.851-33.004-26.723-39.322-1.329-.47-2.599-.923-3.813-1.359v-27.647c2.821 1.048 4.795 2.569 5.819 4.029 3.172 4.52 9.409 5.615 13.93 2.441 4.521-3.172 5.614-9.409 2.441-13.93-4.329-6.17-12.087-11.346-22.19-13.17v-1.22c0-5.523-4.478-10-10-10s-10 4.477-10 10v1.953c-1.195.28-2.406.603-3.632.972-11.811 3.558-20.727 15.021-21.68 27.876-.943 12.719 5.816 23.766 18.082 29.549 1.614.761 4.092 1.796 7.229 3.027v33.483c-4.123-1.385-7.849-3.551-10.331-6.633-3.466-4.302-9.761-4.978-14.061-1.515-4.301 3.464-4.978 9.76-1.515 14.06 6.647 8.252 16.37 12.753 25.907 14.746v.602c0 5.523 4.478 10 10 10 5.477.002 9.924-4.399 10-9.857zm10.696-30.604c-.644 5.07-4.467 8.674-10.694 10.256v-27.006c8.27 4.058 11.39 11.275 10.694 16.75zm-36.06-55.378c.279-3.758 2.454-7.355 5.366-9.211v18.515c-3.856-2.218-5.66-5.342-5.366-9.304z"/></g></g></svg>