<svg id="Capa_1" enable-background="new 0 0 512 512" height="512" viewBox="0 0 512 512" width="512" xmlns="http://www.w3.org/2000/svg"><g><g><g><path d="m206.445 402.344v-14.638l-84.198 9.018c-14.775 1.582-27.907-9.424-28.927-24.245l-4.787-67.925c-.797-12.968-30.668-13.837-32.76-16.019-4.06-4.235-4.054-10.929-.34-15.468l34.195-60.07c-11.271-108.64 63.521-202.997 177.846-202.997.104 0 .207.004.311.004l.001.01v-.01c144.402 0 199.012 115.077 190.732 212.291-3.83 44.961-33.623 108.748-97.666 146.796-15.333 9.109-24.817 25.5-24.817 43.292v89.617h-129.59v-9.244" fill="#ffdcd5"/></g><g><circle cx="302.989" cy="175.958" fill="#ff7d97" r="108.285"/></g><g><path d="m357.965 155.958h-34.976v-34.975h-40v34.975h-34.976v40.001h34.976v34.975h40v-34.975h34.976z" fill="#faf7f5"/></g></g><g><g><path d="m459.884 137.196c-8.876-29.946-23.339-55.978-42.986-77.371-35.925-39.114-87.455-59.798-149.015-59.821h-.063l-.346-.004c-55.321 0-105.085 21.401-140.123 60.262-35.581 39.464-52.978 94.172-47.981 150.539l-32.274 56.692c-6.379 8.517-5.817 20.375 1.457 27.961 2.783 2.904 6.086 3.529 12.081 4.664 10.153 1.922 16.189 3.814 17.957 5.627l4.751 67.421c.682 9.903 5.248 18.87 12.856 25.248 7.609 6.379 17.241 9.311 27.113 8.252l73.133-7.832v3.509c0 5.523 4.478 10 10 10 5.523 0 10-4.477 10-10v-14.638c0-2.837-1.205-5.541-3.316-7.438-2.109-1.896-4.922-2.808-7.748-2.505l-84.197 9.018c-4.418.473-8.729-.838-12.136-3.693-3.403-2.854-5.446-6.865-5.752-11.311l-1.655-23.481c11.793-1.492 23.241-4.739 34.086-9.674 5.027-2.288 7.248-8.217 4.96-13.244-2.287-5.027-8.219-7.247-13.243-4.96-8.671 3.945-17.804 6.592-27.211 7.891l-1.718-24.367c-1.058-17.208-22.591-21.284-34.159-23.474-.493-.093-1.042-.197-1.584-.302.079-.272.214-.538.4-.766.355-.435.674-.898.951-1.385l34.195-60.07c1.032-1.814 1.472-3.904 1.256-5.979-5.382-51.88 10.157-102.292 42.633-138.31 31.179-34.581 75.634-53.634 125.151-53.655.243.01.489.011.735.004 55.721.067 102.078 18.512 134.074 53.35 33.81 36.812 51.15 92.173 46.387 148.092-3.747 43.992-33.897 104.047-92.81 139.047-18.326 10.887-29.71 30.77-29.71 51.89v79.617h-109.617c-.387-5.169-4.703-9.244-9.972-9.244-5.522 0-10 4.477-10 10v9.244c0 5.523 4.478 10 10 10h129.59c5.522 0 10-4.477 10-10v-89.617c0-14.1 7.635-27.394 19.925-34.695 30.579-18.167 56.466-43.833 74.86-74.224 15.626-25.816 25.449-54.34 27.662-80.32 2.465-28.933-.509-58.653-8.597-85.948z"/><path d="m133.041 225.231c5.522 0 10-4.477 10-10v-19.614h17.641c5.522 0 10-4.477 10-10s-4.478-10-10-10h-39.597c-5.522 0-10 4.477-10 10s4.478 10 10 10h1.956v19.614c0 5.523 4.477 10 10 10z"/><path d="m421.274 175.958c0-65.222-53.063-118.285-118.285-118.285-65.223 0-118.285 53.063-118.285 118.285 0 65.223 53.063 118.285 118.285 118.285 65.223 0 118.285-53.062 118.285-118.285zm-118.285 98.285c-54.194 0-98.285-44.09-98.285-98.285 0-54.194 44.091-98.285 98.285-98.285s98.285 44.09 98.285 98.285-44.091 98.285-98.285 98.285z"/><path d="m357.965 145.958h-24.976v-24.976c0-5.523-4.478-10-10-10h-40c-5.522 0-10 4.477-10 10v24.976h-24.976c-5.522 0-10 4.477-10 10v40.001c0 5.523 4.478 10 10 10h24.976v24.976c0 5.523 4.478 10 10 10h40c5.522 0 10-4.477 10-10v-24.976h24.976c5.523 0 10-4.477 10-10v-40.001c0-5.523-4.478-10-10-10zm-10 40h-24.976c-5.522 0-10 4.477-10 10v24.976h-20v-24.976c0-5.523-4.478-10-10-10h-24.976v-20.001h24.976c5.522 0 10-4.477 10-10v-24.976h20v24.976c0 5.523 4.478 10 10 10h24.976z"/><g><g><path d="m206.446 457.73c-4.178 0-8.013-2.692-9.414-6.631-1.376-3.866-.211-8.342 2.944-10.991 3.3-2.77 8.078-3.123 11.747-.864 3.497 2.153 5.336 6.424 4.524 10.446-.933 4.62-5.084 8.04-9.801 8.04z"/></g></g></g></g></g></svg>