<svg id="Capa_1" enable-background="new 0 0 512 512" height="512" viewBox="0 0 512 512" width="512" xmlns="http://www.w3.org/2000/svg"><g><g><path d="m206.444 402.344v-14.638l-84.198 9.018c-14.775 1.582-27.907-9.424-28.927-24.245l-4.787-67.925c-.797-12.968-30.668-13.837-32.76-16.019-4.06-4.235-4.054-10.929-.34-15.468l34.195-60.07c-11.27-108.64 63.522-202.997 177.847-202.997.104 0 .207.004.311.004l.001.01v-.01c144.402 0 199.012 115.077 190.732 212.291-3.83 44.961-33.623 108.748-97.666 146.796-15.333 9.109-24.817 25.5-24.817 43.292v89.617h-129.59v-9.244" fill="#ffdcd5"/><g><path d="m210.454 205.377 72.989-132.903c10.993-20.017 39.752-20.017 50.745 0l72.989 132.903c10.595 19.291-3.363 42.881-25.372 42.881h-145.979c-22.009 0-35.967-23.59-25.372-42.881z" fill="#ff7d97"/></g></g><g><g><path d="m459.883 137.196c-8.876-29.946-23.339-55.978-42.986-77.371-35.924-39.114-87.454-59.798-149.015-59.821h-.064l-.344-.004c-55.322 0-105.085 21.401-140.124 60.262-35.58 39.464-52.977 94.172-47.98 150.539l-32.272 56.692c-6.38 8.515-5.819 20.374 1.456 27.962 2.783 2.903 6.085 3.528 12.081 4.663 10.154 1.922 16.189 3.814 17.957 5.626l4.751 67.422c.682 9.903 5.248 18.87 12.855 25.248 7.61 6.379 17.24 9.31 27.114 8.252l73.133-7.832v3.51c0 5.523 4.477 10 10 10s10-4.477 10-10v-14.638c0-2.837-1.206-5.542-3.316-7.438-2.11-1.897-4.926-2.809-7.749-2.505l-84.198 9.018c-4.422.472-8.729-.839-12.135-3.693-3.404-2.853-5.447-6.865-5.753-11.311l-2.032-28.831h39.621c5.523 0 10-4.477 10-10s-4.477-10-10-10h-41.031l-1.34-19.004c-1.057-17.208-22.591-21.284-34.16-23.474-.492-.093-1.04-.197-1.582-.302.079-.271.213-.537.4-.766.355-.435.674-.898.951-1.386l34.195-60.07c1.032-1.813 1.472-3.904 1.256-5.979-5.382-51.879 10.157-102.291 42.631-138.31 31.181-34.581 75.636-53.634 125.154-53.655.243.01.49.012.735.004 55.721.067 102.078 18.512 134.074 53.35 33.81 36.812 51.15 92.173 46.387 148.092-3.747 43.992-33.898 104.047-92.81 139.047-18.326 10.887-29.71 30.77-29.71 51.89v79.617h-109.617c-.387-5.169-4.703-9.244-9.972-9.244-5.523 0-10 4.477-10 10v9.244c0 5.523 4.477 10 10 10h129.589c5.523 0 10-4.477 10-10v-89.617c0-14.1 7.635-27.394 19.925-34.695 30.579-18.167 56.466-43.833 74.86-74.224 15.626-25.815 25.449-54.34 27.662-80.32 2.466-28.933-.508-58.653-8.597-85.948z"/><path d="m198.126 453.28c2.348 3.491 6.727 5.186 10.808 4.133 4.036-1.041 7.028-4.561 7.461-8.699.431-4.119-1.892-8.207-5.62-9.981-3.685-1.753-8.175-1.097-11.164 1.701-3.528 3.301-4.163 8.827-1.485 12.846z"/><path d="m123.041 215.231c0 5.523 4.477 10 10 10s10-4.477 10-10v-.706l11.651 8.714c1.797 1.344 3.898 1.992 5.981 1.992 3.045 0 6.052-1.386 8.016-4.011 3.308-4.423 2.404-10.689-2.019-13.998l-39.597-29.614c-4.422-3.307-10.689-2.402-13.998 2.019-3.308 4.423-2.404 10.69 2.019 13.998l7.98 5.968c-.022.274-.035.551-.035.83v14.808z"/><path d="m202.307 239.144c7.082 11.969 19.612 19.114 33.519 19.114h145.977c13.907 0 26.438-7.145 33.52-19.114s7.313-26.391.619-38.581l-72.989-132.903c-6.945-12.648-19.707-20.199-34.137-20.199-.001 0 0 0-.001 0-14.43 0-27.192 7.551-34.139 20.199l-72.988 132.903c-6.694 12.189-6.463 26.612.619 38.581zm16.912-28.954 72.989-132.903c3.379-6.153 9.588-9.827 16.607-9.827 7.02 0 13.228 3.673 16.606 9.827l72.989 132.903c3.257 5.93 3.145 12.946-.301 18.769-3.444 5.823-9.541 9.299-16.307 9.299h-145.976c-6.766 0-12.861-3.476-16.307-9.299-3.444-5.822-3.557-12.839-.3-18.769z"/><path d="m308.815 164.222c5.522 0 10-4.477 10-10v-32.794c0-5.523-4.478-10-10-10s-10 4.477-10 10v32.794c0 5.523 4.478 10 10 10z"/><path d="m318.046 195.79c-2.431-6.459-11.571-8.259-16.3-3.25-4.434 4.197-3.651 12.133 1.52 15.38.54.37 1.12.67 1.72.93 8.094 3.433 16.514-4.963 13.06-13.06z"/></g></g></g></svg>