<svg id="Capa_1" enable-background="new 0 0 512 512" height="512" viewBox="0 0 512 512" width="512" xmlns="http://www.w3.org/2000/svg"><g><g><path d="m206.444 402.344v-14.638l-84.198 9.018c-14.775 1.582-27.907-9.424-28.927-24.245l-4.787-67.925c-.797-12.968-30.668-13.837-32.76-16.019-4.06-4.235-4.054-10.929-.34-15.468l34.195-60.07c-11.27-108.64 63.521-202.997 177.847-202.997.104 0 .207.004.311.004l.001.01v-.01c144.402 0 199.012 115.077 190.732 212.291-3.83 44.961-33.623 108.748-97.666 146.796-15.333 9.109-24.817 25.5-24.817 43.292v89.617h-129.59v-9.244" fill="#ffdcd5"/><g><path d="m272.75 186.649h-34.342c-5.571.097-10.071 4.649-10.071 10.249v100.338c0 5.662 4.598 10.251 10.253 10.251h100.216c5.655 0 10.239-4.59 10.239-10.251v-34.416h11.387c8.689 0 15.734-7.053 15.734-15.753s-7.044-15.753-15.734-15.753h-11.387v-34.417c0-5.661-4.584-10.251-10.239-10.251h-.032c-.06.001-.121.002-.182.002h-34.375" fill="#ff7d97"/></g><g><path d="m304.217 198.05v-11.401h34.375c5.655 0 10.239-4.59 10.239-10.251v-100.339c0-5.259-3.955-9.593-9.049-10.183h-102.596c-5.096.59-9.064 4.924-9.064 10.183v34.417h-11.372c-8.689 0-15.734 7.053-15.734 15.753s7.044 15.753 15.734 15.753h11.373v34.417c0 5.662 4.598 10.251 10.253 10.251h34.375v11.401c0 8.7 7.044 15.753 15.733 15.753 8.689-.002 15.733-7.054 15.733-15.754z" fill="#ccf5fc"/></g></g><g><g><g><g><g><path d="m459.883 137.196c-8.875-29.947-23.338-55.978-42.986-77.371-35.924-39.114-87.455-59.798-149.015-59.821h-.064l-.344-.004c-55.322 0-105.086 21.401-140.124 60.262-35.58 39.464-52.977 94.172-47.98 150.539l-32.272 56.692c-6.38 8.515-5.819 20.374 1.456 27.962 2.783 2.903 6.085 3.528 12.08 4.663 10.154 1.922 16.189 3.814 17.957 5.626l4.751 67.422c.682 9.903 5.248 18.87 12.855 25.248 7.61 6.38 17.238 9.313 27.114 8.252l73.133-7.832v3.51c0 5.523 4.477 10 10 10s10-4.477 10-10v-14.638c0-2.837-1.206-5.541-3.316-7.438-2.111-1.896-4.929-2.806-7.749-2.505l-84.198 9.018c-4.423.471-8.729-.839-12.135-3.693-3.404-2.854-5.447-6.865-5.753-11.311l-1.655-23.481c11.794-1.492 23.241-4.739 34.086-9.674 5.027-2.288 7.248-8.217 4.96-13.244-2.289-5.027-8.218-7.248-13.244-4.96-8.669 3.945-17.803 6.592-27.211 7.891l-1.718-24.367c-1.057-17.208-22.591-21.284-34.16-23.474-.492-.093-1.04-.197-1.582-.302.079-.272.213-.537.4-.766.355-.435.674-.898.951-1.386l34.195-60.07c1.032-1.814 1.472-3.904 1.256-5.979-5.382-51.879 10.157-102.292 42.631-138.31 31.184-34.583 75.639-53.636 125.161-53.655.223.009.446.011.672.006.019 0 .037-.001.056-.002 55.721.067 102.079 18.512 134.075 53.35 33.81 36.812 51.151 92.173 46.388 148.092-3.747 43.992-33.898 104.047-92.81 139.047-18.326 10.887-29.71 30.77-29.71 51.89v79.617h-109.618c-.387-5.169-4.703-9.244-9.972-9.244-5.523 0-10 4.477-10 10v9.244c0 5.523 4.477 10 10 10h129.589c5.523 0 10-4.477 10-10v-89.617c0-14.099 7.635-27.394 19.925-34.695 30.58-18.167 56.466-43.833 74.861-74.224 15.626-25.816 25.449-54.34 27.662-80.32 2.465-28.933-.508-58.653-8.598-85.948z"/><path d="m198.126 453.28c2.331 3.466 6.685 5.178 10.748 4.15 4.005-1.013 7.011-4.455 7.502-8.553.496-4.138-1.775-8.275-5.51-10.107-3.803-1.865-8.487-1.103-11.49 1.89-3.337 3.326-3.859 8.704-1.25 12.62z"/><path d="m133.041 225.231c5.523 0 10-4.477 10-10v-19.614h17.641c5.523 0 10-4.477 10-10s-4.477-10-10-10h-39.597c-5.523 0-10 4.477-10 10s4.477 10 10 10h1.957v19.614c-.001 5.523 4.476 10 9.999 10z"/><path d="m358.831 76.059c0-10.287-7.695-18.935-17.899-20.116-.382-.045-.766-.066-1.15-.066h-102.596c-.384 0-.768.022-1.15.066-10.212 1.182-17.914 9.83-17.914 20.116v24.417h-1.373c-14.189 0-25.733 11.553-25.733 25.753s11.544 25.753 25.733 25.753h1.373v24.417c0 3.822 1.065 7.4 2.913 10.454-1.715 2.97-2.699 6.404-2.699 10.046v100.338c0 11.167 9.085 20.251 20.253 20.251h100.216c11.16 0 20.239-9.085 20.239-20.251v-24.417h1.387c14.189 0 25.733-11.553 25.733-25.753s-11.544-25.752-25.733-25.752h-1.387v-24.417c0-3.813-1.059-7.382-2.898-10.43 1.707-2.968 2.684-6.407 2.684-10.07v-100.339zm-142.081 55.922c-3.162 0-5.733-2.581-5.733-5.753s2.572-5.753 5.733-5.753h11.373c5.523 0 10-4.477 10-10v-34.416c0-.082.038-.143.083-.183h100.549c.041.038.076.097.076.183v100.338c0 .138-.107.251-.239.251h-34.374c-5.523 0-10 4.477-10 10v11.401c0 3.172-2.572 5.752-5.733 5.752-3.162 0-5.733-2.581-5.733-5.752v-11.401c0-5.523-4.477-10-10-10h-34.375c-.135 0-.253-.117-.253-.251v-34.417c0-5.523-4.477-10-10-10h-11.374zm143.682 109.333c3.162 0 5.733 2.581 5.733 5.752 0 3.172-2.572 5.753-5.733 5.753h-11.387c-5.523 0-10 4.477-10 10v34.417c0 .138-.107.251-.239.251h-100.217c-.135 0-.253-.117-.253-.251v-100.338c0-.137.114-.236.224-.249h24.19v1.401c0 14.2 11.544 25.752 25.733 25.752s25.733-11.552 25.733-25.752v-1.401h24.374c.072 0 .144-.001.216-.001.131.001.237.113.237.251v34.417c0 5.523 4.477 10 10 10h11.389z"/></g></g></g></g></g></g></svg>