<svg id="Capa_1" enable-background="new 0 0 512 512" height="512" viewBox="0 0 512 512" width="512" xmlns="http://www.w3.org/2000/svg"><g><g><path d="m206.444 402.344v-14.638l-84.198 9.018c-14.775 1.582-27.907-9.424-28.927-24.245l-4.787-67.925c-.797-12.968-30.668-13.837-32.76-16.019-4.06-4.235-4.054-10.929-.34-15.468l34.195-60.07c-11.27-108.64 63.521-202.997 177.847-202.997.104 0 .207.004.311.004l.001.01v-.01c144.402 0 199.012 115.077 190.732 212.291-3.83 44.961-33.623 108.748-97.666 146.796-15.333 9.109-24.817 25.5-24.817 43.292v89.617h-129.59v-9.244" fill="#ffdcd5"/><g><path d="m409.152 186.682-6.869 7.207c-6.947 7.289-9.345 17.797-6.247 27.378l3.054 9.446-9.367 3.522c-9.421 3.542-16.147 11.957-17.527 21.927l-1.361 9.838-10.051-.869c-9.987-.864-19.651 3.787-25.207 12.131l-5.56 8.349-8.644-5.129c-8.633-5.122-19.373-5.122-28.006 0l-8.644 5.129-5.56-8.349c-5.556-8.344-15.22-12.994-25.207-12.131l-10.051.869-1.361-9.838c-1.38-9.97-8.106-18.385-17.527-21.927l-9.367-3.522 3.054-9.445c3.098-9.581.7-20.089-6.247-27.378l-6.869-7.207 6.869-7.207c6.947-7.289 9.344-17.797 6.247-27.377l-3.054-9.446 9.367-3.522c9.421-3.542 16.147-11.957 17.527-21.927l1.361-9.838 11.349.981c9.187.794 18.076-3.483 23.187-11.158l6.282-9.434 8.645 5.129c8.633 5.122 19.373 5.122 28.006 0l8.644-5.129 5.56 8.349c5.556 8.344 15.22 12.994 25.207 12.131l10.052-.869 1.361 9.837c1.38 9.97 8.106 18.385 17.527 21.927l9.367 3.522-3.054 9.445c-3.098 9.581-.7 20.089 6.247 27.378z" fill="#fff2a0"/></g><g><ellipse cx="307.369" cy="186.682" fill="#fff7bf" rx="47.68" ry="47.68" transform="matrix(.971 -.238 .238 .971 -35.583 78.47)"/></g></g><g><g><g><path d="m459.883 137.196c-8.875-29.947-23.338-55.978-42.986-77.371-35.924-39.114-87.455-59.798-149.015-59.821h-.064l-.344-.004c-55.322 0-105.086 21.401-140.124 60.262-35.58 39.464-52.977 94.172-47.98 150.539l-32.272 56.692c-6.38 8.515-5.819 20.374 1.456 27.962 2.783 2.903 6.085 3.528 12.08 4.663 10.154 1.922 16.189 3.814 17.957 5.626l4.751 67.422c.682 9.903 5.248 18.87 12.855 25.248 7.61 6.379 17.238 9.31 27.114 8.252l73.133-7.832v3.51c0 5.523 4.477 10 10 10s10-4.477 10-10v-14.638c0-2.837-1.206-5.542-3.316-7.438-2.111-1.897-4.929-2.809-7.749-2.505l-84.198 9.018c-4.423.472-8.729-.839-12.135-3.693-3.404-2.853-5.447-6.865-5.753-11.311l-1.655-23.481c11.794-1.492 23.241-4.739 34.086-9.674 5.027-2.288 7.248-8.217 4.96-13.244-2.289-5.026-8.218-7.247-13.244-4.96-8.669 3.946-17.803 6.592-27.211 7.891l-1.718-24.367c-1.057-17.208-22.591-21.284-34.16-23.474-.492-.093-1.04-.197-1.582-.302.079-.271.213-.537.4-.766.355-.435.674-.898.951-1.386l34.195-60.07c1.032-1.813 1.472-3.904 1.256-5.979-5.382-51.879 10.157-102.291 42.631-138.31 31.184-34.583 75.639-53.636 125.161-53.655.223.009.446.011.672.006.019 0 .037-.001.056-.002 55.721.067 102.079 18.512 134.075 53.35 33.81 36.812 51.151 92.173 46.388 148.092-3.747 43.992-33.898 104.047-92.81 139.047-18.326 10.887-29.71 30.77-29.71 51.89v79.617h-109.618c-.387-5.169-4.703-9.244-9.972-9.244-5.523 0-10 4.477-10 10v9.244c0 5.523 4.477 10 10 10h129.589c5.523 0 10-4.477 10-10v-89.617c0-14.099 7.635-27.394 19.925-34.695 30.58-18.167 56.466-43.833 74.861-74.224 15.626-25.815 25.449-54.34 27.662-80.32 2.465-28.933-.508-58.653-8.598-85.948z"/><path d="m198.126 453.28c2.331 3.466 6.686 5.177 10.748 4.15 4.004-1.013 7.011-4.456 7.502-8.553.496-4.138-1.776-8.276-5.51-10.107-3.803-1.865-8.487-1.103-11.49 1.89-3.337 3.326-3.859 8.704-1.25 12.62z"/><path d="m133.041 225.231c5.523 0 10-4.477 10-10v-19.614h17.641c5.523 0 10-4.477 10-10s-4.477-10-10-10h-39.597c-5.523 0-10 4.477-10 10s4.477 10 10 10h1.957v19.614c-.001 5.523 4.476 10 9.999 10z"/><path d="m206.132 227.636c-1.643 5.082.997 10.557 5.996 12.437l9.367 3.521c5.994 2.253 10.263 7.594 11.14 13.937l1.361 9.837c.73 5.273 5.474 9.048 10.767 8.592l10.051-.869c6.35-.546 12.49 2.406 16.023 7.711l5.56 8.349c1.92 2.883 5.09 4.458 8.331 4.458 1.738 0 3.497-.453 5.095-1.401l8.644-5.128c5.489-3.257 12.311-3.258 17.802 0l8.645 5.128c4.573 2.714 10.476 1.372 13.425-3.058l5.56-8.349c3.533-5.305 9.676-8.258 16.023-7.711l10.051.869c5.303.458 10.038-3.319 10.767-8.592l1.361-9.837c.878-6.344 5.147-11.684 11.141-13.938l9.367-3.522c4.999-1.88 7.638-7.355 5.996-12.437l-3.054-9.445c-1.971-6.096-.449-12.765 3.971-17.402l6.869-7.207c3.682-3.863 3.682-9.936 0-13.799l-6.869-7.206c-4.42-4.638-5.942-11.307-3.971-17.403l3.054-9.445c1.644-5.081-.996-10.557-5.995-12.437l-9.367-3.522c-5.994-2.253-10.263-7.594-11.141-13.938l-1.361-9.837c-.73-5.273-5.469-9.053-10.767-8.592l-10.051.869c-6.34.551-12.489-2.405-16.022-7.711l-5.56-8.349c-2.95-4.429-8.851-5.771-13.425-3.058l-8.645 5.128c-5.489 3.258-12.311 3.258-17.801 0l-8.645-5.128c-4.574-2.713-10.476-1.371-13.425 3.058l-6.283 9.434c-3.087 4.636-8.454 7.22-14.002 6.738l-11.349-.982c-5.304-.455-10.038 3.319-10.767 8.592l-1.361 9.837c-.878 6.343-5.147 11.684-11.141 13.938l-9.367 3.521c-4.999 1.879-7.639 7.356-5.996 12.437l3.054 9.445c1.971 6.097.449 12.765-3.971 17.403l-6.869 7.207c-3.682 3.863-3.682 9.935 0 13.798l6.869 7.208c4.42 4.638 5.942 11.306 3.971 17.402zm13.561-41.262c9.487-9.955 12.753-24.267 8.523-37.353l-.119-.367.436-.164c12.866-4.838 22.029-16.301 23.914-29.916l.059-.427 1.884.163c12.832 1.107 25.234-4.86 32.372-15.579l1.021-1.532.48.285c11.784 6.991 26.426 6.991 38.21 0l.481-.286.298.448c7.583 11.387 20.761 17.727 34.392 16.551l.586-.051.059.427c1.885 13.616 11.048 25.08 23.914 29.916l.435.164-.119.367c-4.23 13.085-.965 27.398 8.523 37.354l.293.308-.293.308c-9.488 9.955-12.754 24.268-8.523 37.353l.119.367-.435.164c-12.866 4.837-22.029 16.3-23.914 29.917l-.059.427-.586-.051c-13.632-1.176-26.809 5.163-34.393 16.551l-.298.447-.48-.285c-5.893-3.497-12.498-5.244-19.105-5.244-6.606 0-13.214 1.749-19.106 5.244l-.48.285-.298-.448c-7.583-11.387-20.759-17.729-34.392-16.551l-.586.051-.059-.427c-1.884-13.616-11.047-25.08-23.913-29.917l-.436-.164.119-.367c4.23-13.085.965-27.398-8.523-37.353l-.293-.308z"/><path d="m307.369 244.362c31.805 0 57.68-25.875 57.68-57.68s-25.875-57.681-57.68-57.681-57.68 25.875-57.68 57.681c-.001 31.805 25.874 57.68 57.68 57.68zm0-95.36c20.777 0 37.68 16.903 37.68 37.681 0 20.777-16.903 37.68-37.68 37.68s-37.68-16.903-37.68-37.68c-.001-20.778 16.903-37.681 37.68-37.681z"/></g></g></g></g></svg>