<svg id="Capa_1" enable-background="new 0 0 512 512" height="512" viewBox="0 0 512 512" width="512" xmlns="http://www.w3.org/2000/svg"><g><g><path d="m206.445 402.344v-14.638l-84.198 9.018c-14.775 1.582-27.907-9.424-28.927-24.245l-4.787-67.925c-.797-12.968-30.668-13.837-32.76-16.019-4.06-4.235-4.054-10.929-.34-15.468l34.195-60.07c-11.271-108.64 63.521-202.997 177.846-202.997.104 0 .207.004.311.004l.001.01v-.01c144.402 0 199.012 115.077 190.732 212.291-3.83 44.961-33.623 108.748-97.666 146.796-15.333 9.109-24.817 25.5-24.817 43.292v89.617h-129.59v-9.244" fill="#ffdcd5"/><g><path d="m280.57 223.984 45.025-45.025-24.294-24.294v-31.411c-9.256-10.576-22.806-18.836-40.98-18.836-32.384 0-57.501 26.769-57.501 61.137 0 62.605 98.484 114.013 98.484 114.013l.439-.013s.483-.257 1.381-.755v-32.261z" fill="#ff9eb1"/></g><g><path d="m399.783 165.555c0-34.368-25.117-61.137-57.501-61.137-17.901 0-31.309 8.008-40.539 18.352-.156.155-.298.318-.439.487l-.003-.003v31.411l24.294 24.294-45.025 45.025 22.554 22.554v32.262c11.9-6.606 96.659-55.68 96.659-113.245z" fill="#ff7d97"/></g></g><g><g><g><path d="m459.884 137.196c-8.876-29.946-23.339-55.978-42.986-77.371-35.925-39.114-87.455-59.798-149.015-59.821h-.063l-.346-.004c-55.321 0-105.085 21.401-140.123 60.262-35.581 39.464-52.978 94.172-47.981 150.539l-32.274 56.692c-6.379 8.517-5.817 20.375 1.457 27.961 2.783 2.904 6.086 3.529 12.081 4.664 10.153 1.922 16.189 3.814 17.957 5.627l4.751 67.421c.682 9.903 5.248 18.87 12.856 25.248 7.609 6.379 17.241 9.311 27.113 8.252l73.133-7.832v3.509c0 5.523 4.478 10 10 10 5.523 0 10-4.477 10-10v-14.638c0-2.837-1.205-5.541-3.316-7.438-2.109-1.896-4.922-2.809-7.748-2.505l-84.197 9.018c-4.416.472-8.729-.838-12.136-3.693-3.403-2.854-5.446-6.865-5.752-11.311l-1.959-27.794c8.48 1.405 16.721 3.915 24.581 7.491 1.343.611 2.75.9 4.136.9 3.799 0 7.432-2.177 9.107-5.861 2.288-5.027.067-10.956-4.96-13.244-10.913-4.966-22.435-8.222-34.303-9.701l-1.383-19.627c-1.058-17.208-22.591-21.284-34.159-23.474-.493-.093-1.042-.197-1.584-.302.079-.272.214-.538.4-.766.355-.435.674-.898.951-1.385l34.195-60.07c1.032-1.814 1.472-3.904 1.256-5.979-5.382-51.88 10.157-102.292 42.633-138.31 31.179-34.58 75.634-53.633 125.151-53.654.243.01.49.012.735.004 55.721.067 102.078 18.512 134.074 53.35 33.81 36.812 51.15 92.173 46.387 148.092-3.747 43.992-33.897 104.047-92.81 139.047-18.326 10.887-29.71 30.77-29.71 51.89v79.617h-109.617c-.387-5.169-4.703-9.244-9.972-9.244-5.522 0-10 4.477-10 10v9.244c0 5.523 4.478 10 10 10h129.59c5.522 0 10-4.477 10-10v-89.617c0-14.1 7.635-27.394 19.925-34.695 30.579-18.167 56.466-43.833 74.86-74.224 15.626-25.816 25.449-54.34 27.662-80.32 2.465-28.933-.509-58.653-8.597-85.948z"/><path d="m200.896 456.05c3.476 2.316 8.148 2.199 11.504-.286 3.355-2.484 4.82-6.944 3.606-10.934-1.212-3.984-4.867-6.855-9.029-7.08-4.305-.233-8.369 2.436-9.89 6.463-1.627 4.304.003 9.275 3.809 11.837z"/><path d="m133.041 241.255c5.522 0 10-4.477 10-10v-10.71l13.111 7.534c1.57.902 3.283 1.331 4.973 1.331 3.464 0 6.831-1.801 8.681-5.019 2.751-4.789 1.1-10.901-3.688-13.653l-39.551-22.727c-4.79-2.752-10.902-1.099-13.653 3.688-2.751 4.789-1.1 10.901 3.688 13.653l6.439 3.7v22.203c0 5.523 4.477 10 10 10z"/><path d="m296.721 288.456c3.373 1.775 7.456 1.612 10.621-.512.267-.179.483-.317.624-.395.004-.002 101.816-59.679 101.816-121.994 0-39.89-29.65-71.137-67.502-71.137-15.452 0-29.447 5.1-40.981 14.848-9.285-7.83-22.705-14.848-40.979-14.848-37.851 0-67.501 31.247-67.501 71.137 0 67.885 99.616 120.664 103.857 122.878.016.008.03.015.045.023zm93.062-122.901c0 40.835-50.289 78.561-76.659 95.535v-14.552c0-2.652-1.054-5.196-2.929-7.071l-15.482-15.483 37.954-37.954c1.875-1.876 2.929-4.419 2.929-7.071s-1.054-5.196-2.929-7.071l-21.365-21.365v-23.313c8.519-8.492 18.926-12.792 30.979-12.792 26.637 0 47.502 22.462 47.502 51.137zm-176.963 0c0-28.675 20.865-51.137 47.501-51.137 12.05 0 22.455 4.296 30.98 12.781v27.466c0 2.652 1.054 5.196 2.929 7.071l17.223 17.223-37.954 37.954c-3.905 3.905-3.905 10.237 0 14.142l19.625 19.626v12.564c-25.532-15.793-80.304-54.688-80.304-97.69z"/></g></g></g></g></svg>