<svg id="Capa_1" enable-background="new 0 0 512 512" height="512" viewBox="0 0 512 512" width="512" xmlns="http://www.w3.org/2000/svg"><g><g><path d="m206.445 402.344v-14.638l-84.198 9.018c-14.775 1.582-27.907-9.424-28.927-24.245l-4.787-67.925c-.797-12.968-30.668-13.837-32.76-16.019-4.06-4.235-4.054-10.929-.34-15.468l34.195-60.07c-11.271-108.64 63.521-202.997 177.846-202.997.104 0 .207.004.311.004l.001.01v-.01c144.402 0 199.012 115.077 190.732 212.291-3.83 44.961-33.623 108.748-97.666 146.796-15.333 9.109-24.817 25.5-24.817 43.292v89.617h-129.59v-9.244" fill="#ffdcd5"/><g><g><path d="m292.099 110.384c9.012-9.132 21.533-14.792 35.377-14.792 27.447 0 49.698 22.25 49.698 49.698 0 3.376-.337 6.673-.978 9.86h1.107c15.486 0 28.039 12.554 28.039 28.04 0 15.486-12.554 28.039-28.039 28.039h-73.836" fill="#ccf5fc"/></g><g><path d="m220.802 146.995h4.151c2.478-22.318 21.403-39.673 44.382-39.673 24.663 0 44.657 19.993 44.657 44.657 0 3.033-.303 5.996-.879 8.86h.995c13.915 0 25.195 11.28 25.195 25.195 0 13.915-11.28 25.195-25.195 25.195h-93.305c-17.738 0-32.117-14.379-32.117-32.117 0-17.738 14.379-32.117 32.116-32.117z" fill="#faf7f5"/></g></g><g><path d="m313.9 278.588c0 9.98-8.09 18.07-18.07 18.07s-18.07-8.09-18.07-18.07 18.07-29.318 18.07-29.318 18.07 19.338 18.07 29.318z" fill="#ccf5fc"/><g><path d="m382.246 288.588c0 9.98-8.09 18.07-18.07 18.07s-18.07-8.09-18.07-18.07 18.07-29.318 18.07-29.318 18.07 19.338 18.07 29.318z" fill="#faf7f5"/></g><g><path d="m245.554 288.588c0 9.98-8.09 18.07-18.07 18.07s-18.07-8.09-18.07-18.07 18.07-29.318 18.07-29.318 18.07 19.338 18.07 29.318z" fill="#faf7f5"/></g></g></g><g><g><g><path d="m459.884 137.196c-8.876-29.946-23.339-55.978-42.986-77.371-35.925-39.114-87.455-59.798-149.015-59.821h-.063l-.346-.004c-55.321 0-105.085 21.401-140.123 60.262-35.581 39.464-52.978 94.172-47.981 150.539l-32.274 56.692c-6.379 8.517-5.817 20.375 1.457 27.961 2.783 2.904 6.086 3.529 12.081 4.664 10.153 1.922 16.189 3.814 17.957 5.627l4.751 67.421c.682 9.903 5.248 18.87 12.856 25.248 7.609 6.379 17.241 9.311 27.113 8.252l73.133-7.832v3.509c0 5.523 4.478 10 10 10 5.523 0 10-4.477 10-10v-14.638c0-2.837-1.205-5.541-3.316-7.438-2.109-1.896-4.922-2.809-7.748-2.505l-84.197 9.018c-4.418.472-8.729-.838-12.136-3.693-3.403-2.854-5.446-6.865-5.752-11.311l-1.959-27.794c8.48 1.405 16.721 3.915 24.581 7.491 1.343.611 2.75.9 4.136.9 3.799 0 7.432-2.177 9.107-5.861 2.288-5.027.067-10.956-4.96-13.244-10.913-4.966-22.435-8.222-34.303-9.701l-1.383-19.627c-1.058-17.208-22.591-21.284-34.159-23.474-.493-.093-1.042-.197-1.584-.302.079-.272.214-.538.4-.766.355-.435.674-.898.951-1.385l34.195-60.07c1.032-1.814 1.472-3.904 1.256-5.979-5.382-51.88 10.157-102.292 42.633-138.31 31.179-34.58 75.634-53.633 125.151-53.654.243.01.489.012.735.004 55.721.067 102.078 18.512 134.074 53.35 33.81 36.812 51.15 92.173 46.387 148.092-3.747 43.992-33.897 104.047-92.81 139.047-18.326 10.887-29.71 30.77-29.71 51.89v79.617h-109.617c-.387-5.169-4.703-9.244-9.972-9.244-5.522 0-10 4.477-10 10v9.244c0 5.523 4.478 10 10 10h129.59c5.522 0 10-4.477 10-10v-89.617c0-14.1 7.635-27.394 19.925-34.695 30.579-18.167 56.466-43.833 74.86-74.224 15.626-25.816 25.449-54.34 27.662-80.32 2.465-28.933-.509-58.653-8.597-85.948z"/><path d="m198.127 453.28c2.331 3.466 6.682 5.178 10.747 4.15 4.005-1.013 7.015-4.455 7.502-8.556.492-4.143-1.777-8.27-5.514-10.104-3.804-1.867-8.486-1.098-11.495 1.89-3.339 3.314-3.841 8.722-1.24 12.62z"/><path d="m133.041 241.255c5.522 0 10-4.477 10-10v-10.71l13.111 7.534c1.57.902 3.283 1.331 4.973 1.331 3.464 0 6.831-1.801 8.681-5.019 2.751-4.789 1.1-10.901-3.688-13.653l-39.551-22.727c-4.79-2.752-10.901-1.099-13.653 3.688-2.751 4.789-1.1 10.901 3.688 13.653l6.439 3.7v22.203c0 5.523 4.477 10 10 10z"/><path d="m327.475 85.592c-14.74 0-28.637 5.292-39.557 14.983-5.804-2.104-12.062-3.253-18.583-3.253-24.887 0-46.159 16.622-52.64 39.872-21.305 2.07-38.011 20.08-38.011 41.918 0 23.224 18.894 42.117 42.117 42.117h156.499c20.976 0 38.04-17.064 38.04-38.04 0-17.566-11.969-32.389-28.179-36.744.007-.385.011-.771.011-1.156.002-32.917-26.779-59.697-59.697-59.697zm-106.672 115.637c-12.195 0-22.117-9.922-22.117-22.117s9.922-22.117 22.117-22.117h4.151c5.096 0 9.376-3.831 9.938-8.896 1.949-17.546 16.756-30.777 34.443-30.777 19.109 0 34.656 15.547 34.656 34.657 0 2.32-.229 4.637-.683 6.887-.591 2.939.167 5.988 2.066 8.308 1.9 2.319 4.739 3.665 7.737 3.665h.994c8.379 0 15.195 6.816 15.195 15.195s-6.816 15.195-15.195 15.195zm174.539-18.04c0 9.947-8.093 18.04-18.04 18.04h-31.452c2.212-4.602 3.452-9.757 3.452-15.195 0-15.977-10.701-29.501-25.312-33.783.001-.091.001-.182.001-.273 0-15.915-6.838-30.264-17.73-40.262 6.284-3.989 13.578-6.125 21.213-6.125 21.89 0 39.698 17.809 39.698 39.698 0 2.656-.263 5.31-.782 7.886-.592 2.939.167 5.989 2.066 8.309s4.739 3.665 7.737 3.665h1.106c9.95.001 18.043 8.093 18.043 18.04z"/><path d="m295.83 239.27c-2.77 0-5.415 1.149-7.307 3.172-6.243 6.681-20.764 23.578-20.764 36.146 0 15.478 12.592 28.07 28.07 28.07 15.479 0 28.07-12.592 28.07-28.07 0-12.568-14.521-29.465-20.764-36.146-1.89-2.023-4.536-3.172-7.305-3.172zm0 47.388c-4.45 0-8.07-3.62-8.072-7.994.194-2.336 3.544-7.931 8.066-13.871 4.48 5.903 7.861 11.529 8.076 13.844-.027 4.428-3.637 8.021-8.07 8.021z"/><path d="m364.176 249.27c-2.77 0-5.415 1.149-7.307 3.172-6.243 6.681-20.764 23.578-20.764 36.146 0 15.478 12.592 28.07 28.07 28.07 15.479 0 28.07-12.592 28.07-28.07 0-12.568-14.521-29.465-20.764-36.146-1.89-2.023-4.536-3.172-7.305-3.172zm0 47.388c-4.45 0-8.07-3.62-8.072-7.994.194-2.336 3.544-7.931 8.066-13.871 4.48 5.903 7.861 11.529 8.076 13.844-.027 4.428-3.637 8.021-8.07 8.021z"/><path d="m227.484 316.658c15.479 0 28.07-12.592 28.07-28.07 0-12.568-14.521-29.465-20.764-36.146-1.892-2.023-4.537-3.172-7.307-3.172s-5.415 1.149-7.307 3.172c-6.243 6.681-20.764 23.578-20.764 36.146.002 15.477 12.594 28.07 28.072 28.07zm-.006-41.865c4.48 5.903 7.861 11.529 8.076 13.844-.027 4.427-3.637 8.02-8.07 8.02-4.45 0-8.07-3.62-8.072-7.994.194-2.335 3.544-7.93 8.066-13.87z"/></g></g></g></g></svg>