<svg id="Capa_1" enable-background="new 0 0 512 512" height="512" viewBox="0 0 512 512" width="512" xmlns="http://www.w3.org/2000/svg"><g><g><path d="m206.444 402.344v-14.638l-84.198 9.018c-14.775 1.582-27.907-9.424-28.927-24.245l-4.787-67.925c-.797-12.968-30.668-13.837-32.76-16.019-4.06-4.235-4.054-10.929-.34-15.468l34.195-60.07c-11.27-108.64 63.522-202.997 177.847-202.997.104 0 .207.004.311.004l.001.01v-.01c144.402 0 199.012 115.077 190.732 212.291-3.83 44.961-33.623 108.748-97.666 146.796-15.333 9.109-24.817 25.5-24.817 43.292v89.617h-129.59v-9.244" fill="#ffdcd5"/><path d="m208.848 255.586c-7.669-18.077-9.86-38.893-6.026-58.613s12.599-38.345 25.198-54.231c-1.096 13.695 3.835 27.937 13.147 38.345-5.478-26.294 3.287-54.778 20.816-75.594s41.632-28.465 66.83-37.778c-12.599 13.147-14.242 27.917-9.312 45.447 4.93 17.529 4.982 22.511 14.294 38.397s18.077 26.913 18.625 44.99c4.93-9.312 20.764-18.269 24.051-28.677s4.93-21.364 2.191-31.771c9.86 12.051 15.338 24.103 18.077 39.441s2.191 46.63.548 61.968c-2.191 16.981-8.13 33.435-18.496 46.93-27.798 36.188-130.07 58.216-169.943-28.854z" fill="#ff7d97"/><path d="m256.91 287.649c-3.617-8.526-4.651-18.344-2.842-27.645s5.942-18.085 11.885-25.578c-.517 6.459 1.809 13.176 6.201 18.085-2.584-12.401 1.55-25.836 9.818-35.654s19.636-13.426 31.52-17.818c-5.942 6.201-6.717 13.167-4.392 21.435s2.35 10.617 6.742 18.11 8.526 17.977 8.784 26.503c2.325-4.392 9.793-13.9 11.344-18.809 1.55-4.909 2.325-10.076 1.033-14.985 4.651 5.684 7.234 11.368 8.526 18.602s1.034 21.993.258 29.228c-1.034 8.009-3.835 15.77-8.724 22.135-13.11 17.068-61.347 27.458-80.153-13.609z" fill="#fff7bf"/></g><g><path d="m459.883 137.196c-8.876-29.946-23.339-55.978-42.986-77.371-35.924-39.114-87.454-59.798-149.015-59.821h-.064l-.344-.004c-55.322 0-105.085 21.401-140.124 60.262-35.58 39.464-52.977 94.172-47.98 150.539l-32.272 56.692c-6.38 8.515-5.819 20.374 1.456 27.962 2.783 2.903 6.085 3.528 12.081 4.663 10.154 1.922 16.189 3.814 17.957 5.626l4.751 67.422c.682 9.903 5.248 18.87 12.855 25.248 7.61 6.38 17.24 9.313 27.114 8.252l73.133-7.832v3.51c0 5.523 4.477 10 10 10s10-4.477 10-10v-14.638c0-2.837-1.206-5.541-3.316-7.438-2.11-1.896-4.926-2.806-7.749-2.505l-84.198 9.018c-4.422.471-8.729-.839-12.135-3.693-3.404-2.854-5.447-6.865-5.753-11.311l-2.032-28.831h39.621c5.523 0 10-4.477 10-10s-4.477-10-10-10h-41.031l-1.34-19.004c-1.057-17.208-22.591-21.284-34.16-23.474-.492-.093-1.04-.197-1.582-.302.079-.272.213-.537.4-.766.355-.435.674-.898.951-1.386l34.195-60.07c1.032-1.814 1.472-3.904 1.256-5.979-5.382-51.879 10.157-102.292 42.631-138.31 31.181-34.581 75.636-53.634 125.154-53.655.243.01.49.012.735.004 55.721.067 102.078 18.512 134.074 53.35 33.81 36.812 51.15 92.173 46.387 148.092-3.747 43.992-33.898 104.047-92.81 139.047-18.326 10.887-29.71 30.77-29.71 51.89v79.617h-109.617c-.387-5.169-4.703-9.244-9.972-9.244-5.523 0-10 4.477-10 10v9.244c0 5.523 4.477 10 10 10h129.589c5.523 0 10-4.477 10-10v-89.617c0-14.1 7.635-27.394 19.925-34.695 30.579-18.167 56.466-43.833 74.86-74.224 15.626-25.816 25.449-54.34 27.662-80.32 2.466-28.933-.508-58.653-8.597-85.948z"/><path d="m198.126 453.28c2.348 3.491 6.727 5.186 10.808 4.133 4.037-1.042 7.03-4.563 7.461-8.703.43-4.119-1.894-8.203-5.62-9.98-3.683-1.756-8.176-1.094-11.164 1.703-3.528 3.301-4.163 8.828-1.485 12.847z"/><path d="m123.041 215.231c0 5.523 4.477 10 10 10s10-4.477 10-10v-.706l11.651 8.714c1.797 1.344 3.898 1.992 5.981 1.992 3.045 0 6.052-1.386 8.016-4.011 3.308-4.423 2.404-10.689-2.019-13.998l-39.597-29.614c-4.422-3.307-10.689-2.403-13.998 2.019-3.308 4.423-2.404 10.689 2.019 13.998l7.98 5.968c-.022.274-.035.551-.035.83v14.808z"/><path d="m337.176 62.233c-2.554-3.896-7.458-5.514-11.83-3.897-1.878.694-3.75 1.379-5.614 2.061-23.337 8.536-47.469 17.364-65.399 38.655-9.109 10.817-15.859 23.102-19.999 35.936-.784-.639-1.673-1.165-2.65-1.549-4.097-1.613-8.764-.357-11.499 3.09-13.691 17.263-23.09 37.504-27.18 58.536-4.194 21.572-1.837 44.453 6.636 64.427.037.087.075.173.114.258 17.383 37.96 48.565 61.314 87.799 65.757 3.228.366 6.488.591 9.766.683 1.016.049 4.607.059 5.383.031 33.573-.536 67.852-14.645 84.017-35.69 10.857-14.135 17.94-32.027 20.483-51.743.009-.071.017-.143.025-.214 1.71-15.964 2.292-48.336-.646-64.791-3.056-17.116-9.28-30.69-20.181-44.015-2.979-3.64-8.091-4.714-12.282-2.577-4.19 2.137-6.325 6.905-5.129 11.454 1.903 7.234 1.23 15.809-2.057 26.215-.903 2.86-4.946 6.906-8.723 10.474-2.955-7.722-7.127-14.552-11.433-21.599-1.423-2.33-2.894-4.738-4.357-7.233-6.781-11.568-8.039-16.34-10.795-26.796-.705-2.677-1.505-5.712-2.5-9.251-4.361-15.506-2.296-26.219 6.905-35.819 3.225-3.364 3.7-8.507 1.146-12.403zm-55.232 188.238c-1.86-8.928 1.081-19.34 7.677-27.173 2.411-2.864 5.274-5.087 8.499-6.965.241 2.214.692 4.497 1.354 6.848.442 1.572.798 2.922 1.117 4.132 1.449 5.499 2.406 9.132 6.624 16.328 4.262 7.27 7.242 16.01 7.416 21.748.137 4.536 3.311 8.411 7.73 9.438 4.426 1.027 8.979-1.05 11.102-5.06.528-.997 1.712-2.786 2.967-4.652-.013 4.685-.218 9.451-.573 12.834-.879 6.683-3.203 12.634-6.723 17.217-4.379 5.701-15.912 11.028-28.362 11.106-.542-.002-3.928-.137-5.082-.268-9.298-1.053-21.974-5.795-29.628-22.388-2.819-6.72-3.594-14.422-2.178-21.704.19-.974.411-1.943.663-2.907.051.058.103.117.154.174 3.017 3.371 7.922 4.297 11.961 2.258 4.039-2.04 6.205-6.537 5.282-10.966zm47.768-86.31c7.16 11.722 12.334 20.191 12.713 32.69.137 4.536 3.311 8.411 7.731 9.438 4.423 1.026 8.979-1.051 11.102-5.062 1.409-2.662 5.256-6.264 8.977-9.747 5.958-5.578 12.684-11.874 15.49-19.76.438 1.801.826 3.657 1.17 5.578 2.543 14.241 1.961 44.897.46 59.037-2.104 16.174-7.806 30.7-16.494 42.012-4.095 5.331-10.398 10.476-18.221 14.866 1.456-4.041 2.49-8.339 3.067-12.81.009-.072.018-.144.025-.216.822-7.679 1.167-23.51-.357-32.05-1.609-9.01-4.888-16.158-10.631-23.176-2.978-3.64-8.09-4.714-12.281-2.577-4.191 2.136-6.325 6.904-5.129 11.453.393 1.492.431 3.239.111 5.279-1.229-2.524-2.317-4.467-2.976-5.588-2.831-4.83-3.261-6.463-4.538-11.31-.344-1.303-.728-2.757-1.204-4.452-1.771-6.295-.613-9.096 1.985-11.808 3.224-3.363 3.697-8.506 1.143-12.402s-7.458-5.511-11.829-3.897l-2.636.968c-11.654 4.264-23.706 8.672-33.067 19.788-3.613 4.292-6.515 9.032-8.647 14.014-2.89.081-5.679 1.415-7.557 3.783-6.982 8.803-11.776 19.137-13.865 29.883-1.974 10.152-1.151 20.867 2.302 30.514-10.702-8.206-20.745-20.056-28.554-37.057-6.89-16.315-8.794-35.015-5.361-52.671 1.941-9.986 5.299-19.775 9.921-29.042 2.676 6.536 6.443 12.649 11.155 17.915 3.017 3.372 7.922 4.297 11.96 2.258 4.039-2.04 6.205-6.537 5.282-10.966-4.629-22.22 2.526-47.937 18.675-67.113 10.366-12.311 23.379-19.499 38.283-25.644-1.748 8.929-1.087 18.749 1.958 29.578.951 3.38 1.729 6.331 2.415 8.934 2.939 11.15 4.712 17.88 12.88 31.813 1.553 2.654 3.073 5.141 4.542 7.547z"/></g></g></svg>