<svg id="Capa_1" enable-background="new 0 0 512 512" height="512" viewBox="0 0 512 512" width="512" xmlns="http://www.w3.org/2000/svg"><g><g><path d="m206.444 402.344v-14.638l-84.198 9.018c-14.775 1.582-27.907-9.424-28.927-24.245l-4.787-67.925c-.797-12.968-30.668-13.837-32.76-16.019-4.06-4.235-4.054-10.929-.34-15.468l34.195-60.07c-11.27-108.64 63.521-202.997 177.847-202.997.104 0 .207.004.311.004l.001.01v-.01c144.402 0 199.012 115.077 190.732 212.291-3.83 44.961-33.623 108.748-97.666 146.796-15.333 9.109-24.817 25.5-24.817 43.292v89.617h-129.59v-9.244" fill="#ffdcd5"/><g><path d="m337.867 67.728h-82.309c-3.109 0-5.895 1.921-7.002 4.826l-35.322 81.246c-1.375 3.611.222 7.676 3.688 9.385l50.16 24.737-22.329 80.229c-1.88 7.726 7.985 12.674 13.053 6.546l98.319-107.348c2.931-3.544 2.007-8.867-1.947-11.215l-43.157-25.64 33.469-51.771c2.638-4.991-.979-10.995-6.623-10.995z" fill="#fff7bf"/><g><path d="m383.535 184.59-37.302-6.442-49.021 53.522 28.697 20.887-22.778 48.077c-2.023 4.659 3.649 8.846 7.505 5.539l73.562-56.887c2.23-1.912 2.227-5.363-.006-7.272l-24.38-20.832 26.697-28.951c2.204-2.854.579-7.027-2.974-7.641z" fill="#fff2a0"/></g></g></g><g><g><path d="m459.883 137.196c-8.875-29.947-23.338-55.978-42.986-77.371-35.924-39.114-87.455-59.798-149.015-59.821h-.064l-.344-.004c-55.322 0-105.086 21.401-140.124 60.262-35.58 39.464-52.977 94.172-47.98 150.539l-32.272 56.692c-6.38 8.515-5.819 20.374 1.456 27.962 2.783 2.903 6.085 3.528 12.08 4.663 10.154 1.922 16.189 3.814 17.957 5.626l4.751 67.422c.682 9.903 5.248 18.87 12.855 25.248 7.61 6.38 17.239 9.313 27.114 8.252l73.133-7.832v3.51c0 5.523 4.477 10 10 10s10-4.477 10-10v-14.638c0-2.837-1.206-5.541-3.316-7.438-2.111-1.896-4.928-2.806-7.749-2.505l-84.198 9.018c-4.422.471-8.729-.839-12.135-3.693-3.404-2.854-5.447-6.865-5.753-11.311l-2.032-28.831h39.621c5.523 0 10-4.477 10-10s-4.477-10-10-10h-41.03l-1.34-19.004c-1.057-17.208-22.591-21.284-34.16-23.474-.492-.093-1.041-.197-1.583-.302.079-.272.213-.537.4-.766.355-.435.674-.898.951-1.386l34.195-60.07c1.032-1.814 1.472-3.904 1.256-5.979-5.382-51.879 10.157-102.292 42.631-138.31 31.184-34.583 75.639-53.636 125.161-53.655.223.009.446.011.672.006.019 0 .037-.001.056-.002 55.721.067 102.079 18.512 134.075 53.35 33.809 36.812 51.151 92.173 46.388 148.092-3.748 43.992-33.899 104.048-92.81 139.047-18.326 10.887-29.71 30.77-29.71 51.89v79.617h-109.618c-.387-5.169-4.703-9.244-9.972-9.244-5.523 0-10 4.477-10 10v9.244c0 5.523 4.477 10 10 10h129.589c5.523 0 10-4.477 10-10v-89.617c0-14.099 7.635-27.394 19.925-34.695 30.58-18.167 56.466-43.833 74.861-74.224 15.625-25.816 25.449-54.34 27.662-80.32 2.465-28.933-.508-58.653-8.598-85.948z"/><path d="m198.126 453.28c2.298 3.416 6.569 5.138 10.589 4.19 4.018-.947 7.085-4.342 7.641-8.43.561-4.131-1.641-8.302-5.344-10.195-3.715-1.9-8.35-1.269-11.401 1.589-3.526 3.3-4.162 8.829-1.485 12.846z"/><path d="m133.041 225.231c5.523 0 10-4.477 10-10v-17.653l19.998-10.434c4.896-2.555 6.795-8.595 4.24-13.491s-8.597-6.796-13.491-4.24l-39.597 20.659c-4.896 2.555-6.795 8.595-4.24 13.491 1.784 3.419 5.267 5.376 8.874 5.376 1.418 0 2.856-.303 4.216-.938v7.229c0 5.524 4.477 10.001 10 10.001z"/><path d="m353.331 83.396c2.892-5.471 2.712-11.901-.481-17.202-3.193-5.3-8.794-8.465-14.983-8.465h-82.309c-7.118 0-13.61 4.412-16.245 11.006l-35.25 81.079c-.061.142-.12.286-.175.43-3.227 8.479.475 17.898 8.611 21.911l42.727 21.071-20.106 72.244c-.029.105-.057.211-.083.317-1.938 7.966 1.826 16.097 9.155 19.771 2.521 1.265 5.213 1.876 7.873 1.876 4.974 0 9.834-2.137 13.252-6.131l33.236-36.288 14.772 10.752-19.229 40.587c-.047.099-.092.198-.135.298-2.761 6.356-.794 13.67 4.781 17.786 2.635 1.945 5.714 2.909 8.786 2.909 3.328 0 6.646-1.132 9.376-3.376l73.414-56.773c.133-.103.264-.21.392-.319 3.284-2.815 5.165-6.911 5.161-11.236-.003-4.326-1.892-8.418-5.181-11.229l-16.484-14.085 19.657-21.316c.198-.215.387-.438.565-.669 3.196-4.141 3.971-9.523 2.074-14.397s-6.107-8.316-11.262-9.207l-19.741-3.409c2.038-3.523 2.797-7.67 2.09-11.745-.875-5.042-3.9-9.433-8.3-12.046l-34.231-20.34 27.831-43.049c.158-.245.305-.497.442-.755zm-3.501 138.38c.162 2.713 1.42 5.243 3.486 7.009l19.5 16.663-51.25 39.633 13.38-28.241c2.058-4.344.734-9.538-3.152-12.367l-19.648-14.301 37.771-41.239 22.456 3.878-19.911 21.593c-1.843 1.997-2.793 4.659-2.632 7.372zm-47.206-96.713c-1.476 2.282-1.958 5.067-1.338 7.713.621 2.646 2.292 4.925 4.628 6.314l40.497 24.06-89.141 97.328 19.447-69.874c1.289-4.631-.899-9.524-5.211-11.65l-48.009-23.675 33.715-77.549h76.014z"/></g></g></g></svg>