<svg id="Capa_1" enable-background="new 0 0 511.999 511.999" height="512" viewBox="0 0 511.999 511.999" width="512" xmlns="http://www.w3.org/2000/svg"><g><g><g><g><path d="m146.937 373.402-74.983 8.038c-13.158 1.411-24.853-8.401-25.761-21.612l-4.263-60.548c-.71-11.56-27.312-12.334-29.175-14.28-3.615-3.775-3.611-9.742-.303-13.788l30.452-53.546c-10.037-96.84 56.57-180.95 158.383-180.95.093 0 .184.004.277.004l.001.009v-.009c128.597 0 177.231 102.579 169.857 189.235-3.411 40.078-11.905 96.938-68.939 130.853-13.655 8.12-40.139 22.73-8.835 38.591v79.885h-146.71v-101.882z" fill="#ffd0c7"/></g></g><g><g><g><path d="m276.8 373.402-74.983 8.038c-13.158 1.411-24.853-8.401-25.761-21.612l-4.263-60.548c-.71-11.56-27.311-12.334-29.174-14.28-3.616-3.775-3.611-9.742-.303-13.788l30.452-53.546c-10.036-96.84 56.57-180.95 158.383-180.95.093 0 .184.004.277.004l.001.009v-.009c128.597 0 177.231 102.579 169.857 189.235-3.411 40.078-29.943 96.938-86.977 130.853-13.655 8.12-22.101 22.73-22.101 38.591v79.885h-115.408z" fill="#ffdcd5"/></g></g></g></g><g><path d="m112.306 183.655-35.264 10.217c-5.305 1.537-8.359 7.083-6.822 12.388 1.268 4.375 5.263 7.22 9.6 7.22.217 0 .434-.007.653-.022v6.2c0 5.523 4.477 10 10 10s10-4.477 10-10v-11.752l17.398-5.041c5.305-1.537 8.359-7.083 6.822-12.388-1.536-5.305-7.084-8.358-12.387-6.822z"/><path d="m466.906 115.729c1.577 3.848 5.573 6.382 9.729 6.165 4.122-.215 7.756-3.004 9.021-6.93 1.276-3.959-.104-8.459-3.424-10.986-3.382-2.574-8.096-2.739-11.636-.38-3.917 2.611-5.503 7.78-3.69 12.131z"/><path d="m504.824 154.288c-.09-.333-.89-3.172-.984-3.503-1.511-5.313-7.044-8.393-12.354-6.883-5.313 1.511-8.394 7.042-6.883 12.354.087.306.818 2.899.917 3.259 5.665 20.93 7.671 43.611 5.801 65.591-3.314 38.939-29.993 92.106-82.124 123.106-16.648 9.899-26.99 27.98-26.99 47.186v69.885h-95.407v-91.881c0-2.838-1.206-5.542-3.316-7.438-2.111-1.897-4.93-2.808-7.75-2.504l-74.982 8.038c-3.634.387-7.177-.689-9.979-3.038-2.806-2.353-4.49-5.662-4.743-9.333l-1.578-22.411h32.027c5.523 0 10-4.477 10-10s-4.477-10-10-10h-33.435l-1.271-18.048c-.988-16.101-20.516-19.88-31.148-21.895.135-.201.262-.407.381-.617l30.453-53.546c1.031-1.812 1.469-3.901 1.254-5.974-4.765-45.972 8.992-90.625 37.742-122.508 27.55-30.553 66.83-47.388 110.561-47.411.233.01.467.012.702.003 43.74.054 79.964 12.355 107.678 36.566.185.163.86.766 1.403 1.252l.773.691c4.13 3.665 10.451 3.288 14.117-.844 3.665-4.131 3.287-10.452-.844-14.117l-.708-.634c-.622-.557-1.397-1.25-1.583-1.412-31.511-27.527-72.24-41.49-121.062-41.502h-.018l-.324-.003c-21.749 0-42.542 3.697-61.684 10.79-20.509-7.152-43.324-10.78-67.843-10.786h-.012l-.324-.003c-49.55 0-94.137 19.184-125.547 54.017-31.857 35.33-47.472 84.276-43.09 134.735l-28.54 50.182c-5.952 8.008-5.405 19.135 1.423 26.264 2.721 2.842 5.968 3.457 11.348 4.476 3.152.597 12.389 2.347 15.137 4.49l4.199 59.632c.628 9.129 4.835 17.394 11.846 23.272 7.006 5.873 15.871 8.57 24.958 7.597l63.917-6.852v90.752c0 5.523 4.477 10 10 10h245.269c5.523 0 10-4.477 10-10v-79.885c0-12.189 6.595-23.682 17.212-29.995 62.223-37.001 88.356-97.789 91.83-138.601 2.066-24.279-.155-49.353-6.425-72.514zm-351.204 211.675c-2.112-1.897-4.931-2.808-7.75-2.504l-74.982 8.038c-3.633.387-7.177-.689-9.979-3.038-2.806-2.353-4.49-5.662-4.743-9.333l-2.23-31.672c7.626 1.212 15.036 3.439 22.098 6.646l10.111 4.852c1.396.67 2.869.987 4.319.987 3.726-.001 7.303-2.092 9.023-5.676 2.39-4.979.29-10.953-4.689-13.342l-10.204-4.896c-.06-.029-.121-.057-.181-.085-10.14-4.618-20.864-7.595-31.911-8.863l-.592-8.409c-.988-16.101-20.516-19.88-31.148-21.895.135-.201.262-.407.381-.617l30.453-53.546c1.031-1.812 1.469-3.901 1.254-5.974-4.765-45.972 8.992-90.624 37.742-122.508 27.55-30.553 66.831-47.388 110.561-47.411.233.01.467.012.702.003 14.118.018 27.563 1.343 40.197 3.951-13.468 8.103-25.728 18.171-36.451 30.063-31.857 35.33-47.472 84.276-43.09 134.735l-28.54 50.185c-5.952 8.008-5.405 19.135 1.423 26.264 2.721 2.842 5.968 3.457 11.348 4.476 3.152.597 12.389 2.347 15.137 4.49l4.199 59.632c.628 9.129 4.835 17.394 11.846 23.272 7.006 5.873 15.873 8.57 24.959 7.597l63.916-6.852v80.752h-109.862v-91.881c0-2.84-1.206-5.544-3.317-7.441z"/><path d="m220.336 229.658c5.523 0 10-4.477 10-10v-10.004l11.833 3.428c.929.27 1.866.398 2.788.398 4.337 0 8.333-2.844 9.6-7.22 1.537-5.305-1.518-10.851-6.822-12.388l-35.264-10.217c-5.301-1.538-10.851 1.516-12.388 6.822-1.537 5.304 1.518 10.851 6.822 12.388l3.431.994v15.799c0 5.523 4.477 10 10 10z"/></g></g></svg>