<svg id="Capa_1" enable-background="new 0 0 512 512" height="512" viewBox="0 0 512 512" width="512" xmlns="http://www.w3.org/2000/svg"><g><g><path d="m206.445 402.344v-14.638l-84.198 9.018c-14.775 1.582-27.907-9.424-28.927-24.245l-4.787-67.925c-.797-12.968-30.668-13.837-32.76-16.019-4.06-4.235-4.054-10.929-.34-15.468l34.195-60.07c-11.271-108.64 63.521-202.997 177.846-202.997.104 0 .207.004.311.004l.001.01v-.01c144.402 0 199.012 115.077 190.732 212.291-3.83 44.961-33.623 108.748-97.666 146.796-15.333 9.109-24.817 25.5-24.817 43.292v89.617h-129.59v-9.244" fill="#ffdcd5"/><g><g><g><g><path d="m409.586 172.573c0 60.14-49.312 108.285-108.285 108.285-1.833 0-3.664-.167-5.499-.334-12.827-1.165-32.486-6.828-41.147-15.492l-41.648-93.292 88.294-100.788 5.499-6.332c57.141 2.665 102.786 50.144 102.786 107.953z" fill="#faf7f5"/></g></g><g><path d="m355.444 118.43c0 29.486-23.655 54.143-54.143 54.143-30.321 0-54.142 24.655-54.142 54.142 0 27.321 20.824 51.309 48.644 53.808-57.141-2.663-102.786-50.144-102.786-107.951 0-60.14 49.312-108.285 108.285-108.285 1.833 0 3.664.167 5.499.332 27.318 2.666 48.643 25.825 48.643 53.811z" fill="#c193dc"/></g></g></g></g><g><g><path d="m459.884 137.196c-8.876-29.946-23.339-55.978-42.986-77.371-35.925-39.114-87.455-59.798-149.015-59.821h-.063l-.346-.004c-55.321 0-105.085 21.401-140.123 60.262-35.581 39.464-52.978 94.172-47.981 150.539l-32.274 56.692c-6.379 8.517-5.817 20.375 1.457 27.961 2.783 2.904 6.086 3.529 12.081 4.664 10.153 1.922 16.189 3.814 17.957 5.627l4.751 67.421c.682 9.903 5.248 18.87 12.856 25.248 7.609 6.379 17.241 9.311 27.113 8.252l73.133-7.832v3.509c0 5.523 4.478 10 10 10 5.523 0 10-4.477 10-10v-14.638c0-2.837-1.205-5.541-3.316-7.438-2.109-1.896-4.922-2.808-7.748-2.505l-84.197 9.018c-4.416.473-8.729-.838-12.136-3.693-3.403-2.854-5.446-6.865-5.752-11.311l-1.655-23.481c11.793-1.492 23.241-4.739 34.086-9.674 5.027-2.288 7.248-8.217 4.96-13.244-2.286-5.027-8.218-7.247-13.243-4.96-8.671 3.945-17.804 6.592-27.211 7.891l-1.718-24.367c-1.058-17.208-22.591-21.284-34.159-23.474-.493-.093-1.042-.197-1.584-.302.079-.272.214-.538.4-.766.355-.435.674-.898.951-1.385l34.195-60.07c1.032-1.814 1.472-3.904 1.256-5.979-5.382-51.88 10.157-102.292 42.633-138.31 31.179-34.581 75.634-53.634 125.151-53.655.243.01.49.011.735.004 55.721.067 102.078 18.512 134.074 53.35 33.81 36.812 51.15 92.173 46.387 148.092-3.747 43.992-33.897 104.047-92.81 139.047-18.326 10.887-29.71 30.77-29.71 51.89v79.617h-109.617c-.387-5.169-4.703-9.244-9.972-9.244-5.522 0-10 4.477-10 10v9.244c0 5.523 4.478 10 10 10h129.59c5.522 0 10-4.477 10-10v-89.617c0-14.1 7.635-27.394 19.925-34.695 30.579-18.167 56.466-43.833 74.86-74.224 15.626-25.816 25.449-54.34 27.662-80.32 2.465-28.933-.509-58.653-8.597-85.948z"/><path d="m200.896 456.05c3.523 2.348 8.275 2.192 11.637-.384 3.267-2.503 4.67-6.904 3.473-10.836-1.25-4.105-5.09-7.016-9.387-7.093-4.175-.075-8.05 2.56-9.524 6.461-1.628 4.313-.017 9.281 3.801 11.852z"/><path d="m133.041 225.231c5.522 0 10-4.477 10-10v-19.614h17.641c5.522 0 10-4.477 10-10s-4.478-10-10-10h-39.597c-5.522 0-10 4.477-10 10s4.478 10 10 10h1.956v19.614c0 5.523 4.477 10 10 10z"/><path d="m301.302 290.858c65.223 0 118.285-53.063 118.285-118.285 0-30.492-11.625-59.458-32.733-81.562-21.003-21.991-49.176-34.901-79.354-36.368-1.874-.169-3.988-.355-6.198-.355-65.223 0-118.285 53.062-118.285 118.285 0 30.491 11.625 59.456 32.733 81.561 21.001 21.992 49.175 34.902 79.353 36.368 1.879.17 3.992.356 6.199.356zm-59.332-39.886c-23.732-17.915-38.953-46.398-38.953-78.399 0-54.195 44.091-98.285 98.285-98.285 1.347 0 2.872.137 4.499.283.016.002.032.003.047.004 22.574 2.212 39.596 21.062 39.596 43.855 0 24.34-19.803 44.143-44.143 44.143-35.368 0-64.143 28.774-64.143 64.143.001 8.531 1.711 16.733 4.812 24.256zm15.189-24.257c0-24.34 19.803-44.143 44.143-44.143 35.368 0 64.143-28.775 64.143-64.143 0-8.385-1.631-16.587-4.735-24.199 23.688 17.918 38.878 46.375 38.878 78.342 0 54.195-44.091 98.285-98.285 98.285-1.375 0-2.933-.142-4.593-.293-.003 0-.006 0-.009-.001-.001 0-.002 0-.003 0-22.172-1.991-39.539-21.252-39.539-43.848z"/><path d="m301.302 130.956c5.522 0 10-4.477 10-10v-8.849c0-5.523-4.478-10-10-10s-10 4.477-10 10v8.849c0 5.523 4.477 10 10 10z"/><path d="m311.302 233.038v-8.849c0-5.523-4.478-10-10-10s-10 4.477-10 10v8.849c0 5.523 4.478 10 10 10s10-4.477 10-10z"/></g></g></g></svg>