<svg id="Capa_1" enable-background="new 0 0 512 512" height="512" viewBox="0 0 512 512" width="512" xmlns="http://www.w3.org/2000/svg"><g><g><path d="m206.445 402.344v-14.638l-84.198 9.018c-14.775 1.582-27.907-9.424-28.927-24.245l-4.787-67.925c-.797-12.968-30.668-13.837-32.76-16.019-4.06-4.235-4.054-10.929-.34-15.468l34.195-60.07c-11.271-108.64 63.521-202.997 177.846-202.997.104 0 .207.004.311.004l.001.01v-.01c144.402 0 199.012 115.077 190.732 212.291-3.83 44.961-33.623 108.748-97.666 146.796-15.333 9.109-24.817 25.5-24.817 43.292v89.617h-129.59v-9.244" fill="#ffdcd5"/><g><g><g><path d="m312.197 151.548v-16.561c0-27.16-22.018-49.178-49.178-49.178-27.16 0-49.178 22.018-49.178 49.178v39.889h73.892" fill="#faf7f5"/></g><g><path d="m298.479 174.876h-84.637v39.889c0 27.16 22.018 49.178 49.178 49.178 21.311 0 39.456-13.555 46.283-32.514" fill="#ff7d97"/></g></g><g><ellipse cx="355.62" cy="192.573" fill="#ccf5fc" rx="58.607" ry="58.607" transform="matrix(.236 -.972 .972 .236 84.668 492.798)"/></g></g></g><g><path d="m459.884 137.196c-8.876-29.946-23.339-55.978-42.986-77.371-35.925-39.114-87.455-59.798-149.015-59.821h-.063l-.346-.004c-55.321 0-105.085 21.401-140.123 60.262-35.581 39.464-52.978 94.172-47.981 150.539l-32.274 56.692c-6.379 8.517-5.817 20.375 1.457 27.961 2.783 2.904 6.086 3.529 12.081 4.664 10.153 1.922 16.189 3.814 17.957 5.627l2.007 28.478c.003.057.007.113.012.17l2.732 38.774c.682 9.903 5.248 18.87 12.856 25.248 7.609 6.379 17.241 9.31 27.113 8.252l73.133-7.832v3.509c0 5.523 4.478 10 10 10 5.523 0 10-4.477 10-10v-14.638c0-2.837-1.205-5.542-3.316-7.438-2.109-1.897-4.922-2.809-7.748-2.505l-84.197 9.018c-4.418.47-8.729-.838-12.136-3.693-3.403-2.853-5.446-6.865-5.752-11.311l-1.988-28.2h32.465c5.522 0 10-4.477 10-10s-4.478-10-10-10h-33.874l-1.384-19.635c-1.058-17.208-22.591-21.284-34.159-23.474-.493-.093-1.042-.197-1.584-.302.079-.271.214-.538.4-.766.355-.434.674-.898.951-1.385l34.195-60.07c1.032-1.813 1.472-3.904 1.256-5.979-5.382-51.88 10.157-102.291 42.633-138.31 31.179-34.582 75.634-53.635 125.151-53.656.243.01.489.012.735.004 55.721.067 102.078 18.512 134.074 53.35 33.81 36.812 51.15 92.173 46.387 148.092-3.747 43.992-33.897 104.047-92.81 139.047-18.326 10.887-29.71 30.77-29.71 51.89v79.617h-109.617c-.387-5.169-4.703-9.244-9.972-9.244-5.522 0-10 4.477-10 10v9.244c0 5.523 4.478 10 10 10h129.59c5.522 0 10-4.477 10-10v-89.617c0-14.1 7.635-27.394 19.925-34.695 30.579-18.167 56.466-43.833 74.86-74.224 15.626-25.815 25.449-54.34 27.662-80.32 2.465-28.933-.509-58.653-8.597-85.948z"/><path d="m198.127 453.28c2.331 3.466 6.682 5.178 10.747 4.15 4.005-1.012 7.015-4.455 7.502-8.556.492-4.143-1.777-8.27-5.514-10.104-3.804-1.867-8.486-1.098-11.495 1.89-3.339 3.314-3.841 8.722-1.24 12.62z"/><path d="m313.066 246.352c11.703 9.28 26.492 14.827 42.554 14.827 37.83 0 68.607-30.777 68.607-68.607s-30.777-68.606-68.607-68.606c-12.144 0-23.561 3.172-33.467 8.73-1.208-31.574-27.27-56.887-59.134-56.887-32.631 0-59.178 26.547-59.178 59.178v79.777c0 32.631 26.547 59.178 59.178 59.178 20.53 0 39.356-10.703 50.047-27.59zm91.161-53.779c0 26.802-21.806 48.607-48.607 48.607-26.802 0-48.607-21.805-48.607-48.607s21.805-48.606 48.607-48.606c26.802-.001 48.607 21.804 48.607 48.606zm-180.385-57.586c0-21.602 17.575-39.178 39.178-39.178 21.602 0 39.178 17.575 39.178 39.178v14.587c-3.744 4.643-6.897 9.782-9.342 15.302h-69.013v-29.889zm0 79.777v-29.889h63.601c-.284 2.527-.429 5.095-.429 7.697 0 14.181 4.325 27.371 11.724 38.32-6.287 13.904-20.275 23.049-35.719 23.049-21.602.001-39.177-17.574-39.177-39.177z"/><path d="m338.384 219.443c2.559 0 5.118-.977 7.071-2.929l34.473-34.472c3.905-3.905 3.905-10.237 0-14.142s-10.235-3.905-14.143 0l-34.473 34.472c-3.905 3.905-3.905 10.237 0 14.142 1.953 1.953 4.512 2.929 7.072 2.929z"/><path d="m161.236 198.621h15.872c5.522 0 10-4.477 10-10s-4.478-10-10-10h-15.872c-21.681 0-39.319 17.639-39.319 39.319v13.149c0 14.594 11.874 26.468 26.469 26.468s26.468-11.874 26.468-26.468v-8.042c0-5.523-4.478-10-10-10-5.523 0-10 4.477-10 10v8.042c0 3.566-2.901 6.468-6.468 6.468-3.566 0-6.469-2.901-6.469-6.468v-13.149c0-10.652 8.667-19.319 19.319-19.319z"/></g></g></svg>