<svg id="Capa_1" enable-background="new 0 0 512 512" height="512" viewBox="0 0 512 512" width="512" xmlns="http://www.w3.org/2000/svg"><g><g><path d="m206.444 402.344v-14.638l-84.198 9.018c-14.775 1.582-27.907-9.424-28.927-24.245l-4.787-67.925c-.797-12.968-30.668-13.837-32.76-16.019-4.06-4.235-4.054-10.929-.34-15.468l34.195-60.07c-11.27-108.64 63.522-202.997 177.847-202.997.104 0 .207.004.311.004l.001.01v-.01c144.402 0 199.012 115.077 190.732 212.291-3.83 44.961-33.623 108.748-97.666 146.796-15.333 9.109-24.817 25.5-24.817 43.292v89.617h-129.59v-9.244" fill="#ffdcd5"/><g><ellipse cx="299.815" cy="180.511" fill="#ccf5fc" rx="101.34" ry="101.34" transform="matrix(.707 -.707 .707 .707 -39.827 264.872)"/></g></g><g><path d="m459.883 137.196c-8.876-29.946-23.339-55.978-42.986-77.371-35.924-39.114-87.454-59.798-149.015-59.821h-.064l-.344-.004c-55.322 0-105.085 21.401-140.124 60.262-35.58 39.464-52.977 94.172-47.98 150.539l-32.272 56.692c-6.38 8.515-5.819 20.374 1.456 27.962 2.783 2.903 6.085 3.528 12.081 4.663 10.154 1.922 16.189 3.814 17.957 5.626l2.015 28.585c0 .007.001.015.001.022l2.735 38.815c.682 9.903 5.248 18.87 12.855 25.248 7.61 6.38 17.24 9.311 27.114 8.252l73.133-7.832v3.51c0 5.523 4.477 10 10 10s10-4.477 10-10v-14.638c0-2.837-1.206-5.541-3.316-7.438-2.11-1.896-4.926-2.807-7.749-2.505l-84.198 9.018c-4.422.471-8.729-.839-12.135-3.693-3.404-2.854-5.447-6.865-5.753-11.311l-1.988-28.2h32.466c5.523 0 10-4.477 10-10s-4.477-10-10-10h-33.875l-1.384-19.635c-1.057-17.208-22.591-21.284-34.16-23.474-.492-.093-1.04-.197-1.582-.302.079-.272.213-.537.4-.766.355-.435.674-.898.951-1.386l34.195-60.07c1.032-1.814 1.472-3.904 1.256-5.979-5.382-51.879 10.157-102.292 42.631-138.31 31.18-34.581 75.635-53.634 125.153-53.655.243.01.49.011.735.004 55.721.067 102.078 18.512 134.074 53.35 33.81 36.812 51.15 92.173 46.387 148.092-3.747 43.992-33.898 104.047-92.81 139.047-18.326 10.887-29.71 30.77-29.71 51.89v79.617h-109.617c-.387-5.169-4.703-9.244-9.972-9.244-5.523 0-10 4.477-10 10v9.244c0 5.523 4.477 10 10 10h129.589c5.523 0 10-4.477 10-10v-89.617c0-14.1 7.635-27.394 19.925-34.695 30.579-18.167 56.466-43.833 74.86-74.224 15.626-25.816 25.449-54.34 27.662-80.32 2.466-28.933-.508-58.653-8.597-85.948z"/><path d="m198.126 453.28c2.348 3.491 6.727 5.186 10.808 4.133 4.035-1.041 7.028-4.561 7.461-8.699.431-4.118-1.895-8.207-5.62-9.984-3.683-1.756-8.177-1.094-11.164 1.703-3.527 3.302-4.163 8.828-1.485 12.847z"/><path d="m133.041 241.255c5.523 0 10-4.477 10-10v-10.71l13.11 7.533c1.571.902 3.283 1.331 4.973 1.331 3.463 0 6.83-1.801 8.68-5.019 2.751-4.789 1.101-10.901-3.688-13.653l-39.551-22.727c-4.79-2.752-10.901-1.1-13.653 3.688-2.751 4.789-1.101 10.901 3.688 13.653l6.44 3.701v22.202c.001 5.524 4.478 10.001 10.001 10.001z"/><path d="m411.155 180.511c0-61.393-49.947-111.34-111.34-111.34s-111.34 49.947-111.34 111.34 49.947 111.339 111.34 111.339 111.34-49.947 111.34-111.339zm-202.053 10.725h5.374c5.523 0 10-4.477 10-10s-4.477-10-10-10h-5.533c4.401-43.443 39.372-77.989 83.003-81.729v6.259c0 5.523 4.478 10 10 10s10-4.477 10-10v-5.793c41.63 5.548 74.485 39.244 78.742 81.263h-5.271c-5.522 0-10 4.477-10 10s4.478 10 10 10h5.112c-4.857 41.341-37.433 74.327-78.583 79.811v-4.341c0-5.523-4.478-10-10-10s-10 4.477-10 10v4.807c-43.145-3.698-77.821-37.518-82.844-80.277z"/><path d="m305.846 198.487c2.499-1.89 3.969-4.843 3.969-7.977v-48.319c0-5.523-4.478-10-10-10-5.523 0-10 4.477-10 10v43.343l-18.581 14.048c-4.405 3.331-5.276 9.602-1.945 14.007 1.966 2.601 4.957 3.97 7.984 3.97 2.1 0 4.219-.66 6.023-2.024z"/></g></g></svg>