<svg id="Capa_1" enable-background="new 0 0 512.014 512.014" height="512" viewBox="0 0 512.014 512.014" width="512" xmlns="http://www.w3.org/2000/svg"><g><g><path d="m254.798 470.63h113.061v-99.716l73.459 7.867c12.89 1.381 24.348-8.222 25.238-21.153l4.177-59.262c.695-11.314 26.756-12.072 28.582-13.976 3.542-3.695 3.537-9.535.297-13.495l-29.833-52.408c9.832-94.782-55.42-177.104-155.163-177.104-.091 0-.18.004-.271.004l-.001.009v-.009c-20.403 0-38.751 2.633-55.145 7.407" fill="#ffd0c7"/><g><g><g><path d="m144.155 370.914-73.459 7.867c-12.891 1.381-24.348-8.222-25.238-21.153l-4.177-59.262c-.695-11.314-26.756-12.072-28.581-13.976-3.542-3.695-3.537-9.535-.297-13.495l29.833-52.408c-9.832-94.782 55.42-177.104 155.164-177.104.091 0 .18.004.271.004l.001.009v-.009c125.984 0 173.629 100.399 166.404 185.214-3.341 39.226-29.335 94.878-85.209 128.072-13.377 7.947-21.652 22.247-21.652 37.771v78.187h-113.06z" fill="#ffdcd5"/></g></g></g></g><g><g><path d="m507.951 265.334-27.92-49.047c4.274-49.389-11.023-97.307-42.219-131.907-30.814-34.176-74.566-52.997-123.198-52.997l-.271.003s0 0-.001 0c-20.66 0-40.154 2.626-57.941 7.806-.091.026-.181.055-.271.083-17.876-5.246-37.379-7.886-58.418-7.889l-.312-.003c-48.631 0-92.384 18.821-123.198 52.997-31.196 34.6-46.493 82.518-42.22 131.907l-27.92 49.047c-5.887 7.921-5.343 18.925 1.418 25.978 2.711 2.828 5.915 3.434 11.224 4.439 3.04.576 11.916 2.255 14.671 4.303l4.106 58.262c.619 8.989 4.763 17.128 11.668 22.918 6.908 5.79 15.645 8.449 24.611 7.492l62.394-6.683v88.588c0 5.523 4.477 10 10 10h223.704c5.523 0 10-4.477 10-10v-88.588l62.394 6.683c8.965.959 17.703-1.701 24.611-7.492 6.906-5.79 11.049-13.928 11.667-22.901l4.107-58.278c2.754-2.048 11.63-3.728 14.671-4.303 5.309-1.004 8.513-1.611 11.224-4.439 6.762-7.054 7.306-18.057 1.419-25.979zm-47.194 32.33-.914 12.974c-10.666 1.276-21.018 4.174-30.813 8.632-.267.122-.528.255-.784.399l-7.078 4.006c-4.807 2.721-6.497 8.822-3.777 13.629 1.84 3.25 5.226 5.076 8.712 5.076 1.669 0 3.361-.418 4.916-1.299l6.685-3.783c6.626-2.976 13.565-5.071 20.701-6.257l-1.826 25.901c-.242 3.516-1.863 6.7-4.564 8.964-2.704 2.266-6.125 3.305-9.632 2.932l-73.459-7.867c-2.819-.303-5.638.608-7.749 2.505-2.11 1.896-3.316 4.601-3.316 7.438v89.716h-90.644v-68.187c0-11.853 6.422-23.032 16.759-29.173 61.027-36.256 86.659-95.825 90.066-135.821 2.027-23.79-.152-48.357-6.3-71.049l-.269-.983c-1.468-5.325-6.976-8.45-12.298-6.982-5.324 1.468-8.451 6.974-6.982 12.298l.246.898c5.543 20.46 7.506 42.633 5.676 64.121-3.242 38.056-29.345 90.02-80.353 120.324-16.373 9.727-26.544 27.494-26.544 46.368v68.187h-93.061v-89.716c0-2.837-1.206-5.542-3.316-7.438-2.11-1.897-4.93-2.809-7.749-2.505l-73.459 7.867c-3.508.375-6.928-.665-9.632-2.932-2.702-2.265-4.323-5.448-4.566-8.981l-1.359-19.288c9.995-1.381 19.698-4.195 28.91-8.387.06-.028.121-.056.181-.085l9.996-4.793c4.98-2.388 7.082-8.36 4.694-13.34s-8.36-7.081-13.34-4.694l-9.904 4.748c-7.009 3.18-14.37 5.373-21.947 6.544l-1.401-19.876c-.969-15.771-19.839-19.57-30.374-21.567.071-.113.139-.228.205-.344l29.833-52.408c1.032-1.813 1.472-3.904 1.256-5.979-4.658-44.904 8.781-88.527 36.873-119.683 26.954-29.895 65.396-46.368 108.203-46.39.234.009.47.01.707.003 43.218.055 78.921 12.307 106.122 36.417 4.134 3.663 10.453 3.282 14.117-.85 3.663-4.133 3.283-10.453-.85-14.117-8.707-7.718-18.141-14.367-28.277-19.941 8.05-.992 16.389-1.498 24.971-1.509.235.007.47.006.702-.003 42.841.034 81.263 16.506 108.207 46.39 28.091 31.156 41.531 74.779 36.872 119.683-.215 2.075.224 4.165 1.256 5.979l29.833 52.408c.066.116.134.231.205.344-10.534 1.996-29.404 5.795-30.367 21.476z"/><path d="m436.337 194.786-34.546-9.805c-5.318-1.506-10.842 1.578-12.351 6.89-1.508 5.313 1.577 10.843 6.89 12.351l16.845 4.781v11.436c0 5.523 4.477 10 10 10s10-4.477 10-10v-6.04c.146.006.291.01.436.01 4.358 0 8.366-2.872 9.615-7.272 1.509-5.314-1.576-10.844-6.889-12.351z"/><path d="m348.677 111.157c-1.612-3.933-5.701-6.456-9.942-6.148-4.155.302-7.746 3.224-8.893 7.225-1.152 4.014.392 8.437 3.783 10.874 3.34 2.4 7.952 2.469 11.372.189 3.921-2.615 5.49-7.795 3.68-12.14z"/><path d="m112.953 184.601h-34.546c-5.523 0-10 4.477-10 10s4.477 10 10 10h.431v15.837c0 5.523 4.477 10 10 10s10-4.477 10-10v-15.837h14.115c5.523 0 10-4.477 10-10s-4.477-10-10-10z"/></g></g></g></svg>