<svg id="Capa_1" enable-background="new 0 0 512 512" height="512" viewBox="0 0 512 512" width="512" xmlns="http://www.w3.org/2000/svg"><g><g><path d="m206.444 402.344v-14.638l-84.198 9.018c-14.775 1.582-27.907-9.424-28.927-24.245l-4.787-67.925c-.797-12.968-30.668-13.837-32.76-16.019-4.06-4.235-4.054-10.929-.34-15.468l34.195-60.07c-11.27-108.64 63.521-202.997 177.847-202.997.104 0 .207.004.311.004l.001.01v-.01c144.402 0 199.012 115.077 190.732 212.291-3.83 44.961-33.623 108.748-97.666 146.796-15.333 9.109-24.817 25.5-24.817 43.292v89.617h-129.59v-9.244" fill="#ffdcd5"/><g><path d="m338.863 92.935c-17.901 0-31.309 8.008-40.539 18.352-.155.155-.297.318-.438.487-9.257-10.577-22.807-18.839-40.983-18.839-32.384 0-57.501 26.769-57.501 61.138 0 62.605 98.484 114.013 98.484 114.013l.438-.013s98.04-52.089 98.04-114c0-34.368-25.117-61.138-57.501-61.138z" fill="#ff7d97"/></g></g><g><g><path d="m459.883 137.196c-8.875-29.947-23.338-55.978-42.986-77.371-35.924-39.114-87.455-59.798-149.015-59.821h-.064l-.344-.004c-55.322 0-105.086 21.401-140.124 60.262-35.58 39.464-52.977 94.172-47.98 150.539l-32.272 56.692c-6.38 8.515-5.819 20.374 1.456 27.962 2.783 2.903 6.085 3.528 12.08 4.663 10.154 1.922 16.189 3.814 17.957 5.626l4.751 67.422c.682 9.903 5.248 18.87 12.855 25.248 7.61 6.38 17.238 9.311 27.114 8.252l73.133-7.832v3.51c0 5.523 4.477 10 10 10s10-4.477 10-10v-14.638c0-2.837-1.206-5.541-3.316-7.438-2.111-1.896-4.929-2.807-7.749-2.505l-84.198 9.018c-4.423.471-8.729-.839-12.135-3.693-3.404-2.854-5.447-6.865-5.753-11.311l-1.655-23.481c11.794-1.492 23.241-4.739 34.086-9.674 5.027-2.288 7.248-8.217 4.96-13.244-2.289-5.027-8.218-7.246-13.244-4.96-8.669 3.945-17.803 6.592-27.211 7.891l-1.718-24.367c-1.057-17.208-22.591-21.284-34.16-23.474-.492-.093-1.04-.197-1.582-.302.079-.272.213-.537.4-.766.355-.435.674-.898.951-1.386l34.195-60.07c1.032-1.814 1.472-3.904 1.256-5.979-5.382-51.879 10.157-102.292 42.631-138.31 31.184-34.583 75.639-53.636 125.161-53.655.223.01.446.011.672.006.019 0 .037-.001.056-.002 55.721.067 102.079 18.512 134.075 53.35 33.81 36.812 51.151 92.173 46.388 148.092-3.747 43.992-33.898 104.047-92.81 139.047-18.326 10.887-29.71 30.77-29.71 51.89v79.617h-109.618c-.387-5.169-4.703-9.244-9.972-9.244-5.523 0-10 4.477-10 10v9.244c0 5.523 4.477 10 10 10h129.589c5.523 0 10-4.477 10-10v-89.617c0-14.099 7.635-27.394 19.925-34.695 30.58-18.167 56.466-43.833 74.861-74.224 15.626-25.816 25.449-54.34 27.662-80.32 2.465-28.933-.508-58.653-8.598-85.948z"/><path d="m198.126 453.28c2.331 3.466 6.685 5.178 10.748 4.15 4.005-1.013 7.013-4.457 7.502-8.556.493-4.136-1.777-8.273-5.51-10.104-3.8-1.864-8.49-1.105-11.49 1.89-3.334 3.329-3.861 8.702-1.25 12.62z"/><path d="m133.041 225.231c5.523 0 10-4.477 10-10v-19.614h17.641c5.523 0 10-4.477 10-10s-4.477-10-10-10h-39.597c-5.523 0-10 4.477-10 10s4.477 10 10 10h1.957v19.614c-.001 5.523 4.476 10 9.999 10z"/><path d="m297.885 278.086c.1 0 .2-.001.3-.004l.439-.013c1.534-.046 3.036-.445 4.391-1.165 4.22-2.242 103.348-55.682 103.348-122.831 0-39.89-29.65-71.137-67.501-71.137-15.451 0-29.447 5.101-40.982 14.847-9.285-7.83-22.706-14.847-40.978-14.847-37.851 0-67.501 31.247-67.501 71.137 0 67.885 99.616 120.665 103.857 122.878 1.43.746 3.017 1.135 4.627 1.135zm-88.484-124.013c0-28.675 20.865-51.137 47.501-51.137 13.244 0 24.5 5.189 33.458 15.425 1.923 2.198 4.727 3.43 7.645 3.399 2.898-.031 5.65-1.333 7.525-3.54.086-.09.171-.182.254-.275 8.887-9.959 20.016-15.01 33.077-15.01 26.636 0 47.501 22.462 47.501 51.137 0 48.11-69.86 91.938-88.313 102.673-18.565-10.616-88.648-53.932-88.648-102.672z"/></g></g></g></svg>